<?xml version="1.0" encoding="UTF-8"?>
<svg id="Layer_2" xmlns="http://www.w3.org/2000/svg" version="1.1" viewBox="0 0 1000 1000">
  <!-- Generator: Adobe Illustrator 29.2.1, SVG Export Plug-In . SVG Version: 2.1.0 Build 116)  -->
  <defs>
    <style>
      .st0 {
        fill: #fff;
      }
    </style>
  </defs>
  <path class="st0" d="M78.8,250.2l6.6-9.9,55.7,1.9h0c0-.1-39.4-26.4-39.4-26.4l5.9-8.9,53.4,35.7-6.6,9.9-55.5-1.9-.2.2,39.3,26.2-5.9,8.9-53.4-35.7Z"/>
  <path class="st0" d="M119.2,193.1l7.2-8.7,49.5,40.9-7.2,8.7-49.5-40.9Z"/>
  <path class="st0" d="M133.5,175.3l36.5-37,6.9,6.8-14.4,14.5,38.8,38.3-7.9,8-38.8-38.3-14.3,14.5-6.9-6.8Z"/>
  <path class="st0" d="M180.2,129.3l24.2-18.8c5.6-4.3,10.7-6.4,15.4-6.1,4.7.2,8.7,2.5,12,6.8,1.9,2.4,3.1,4.7,3.6,6.8.5,2.1.7,4.1.5,5.8-.2,1.7-.6,3.1-1.2,4.3-.6,1.1-1,2-1.4,2.4h.1c.8-.4,1.8-.7,3-1.1,1.2-.3,2.5-.3,3.9,0,1.4.2,2.9.8,4.4,1.8,1.5.9,3.1,2.4,4.6,4.4,2.3,3,4.7,5.5,7,7.6,2.3,2.1,4.4,3.3,6.2,3.6l-9.5,7.4c-1.5-.6-2.8-1.5-4-2.7-1.1-1.2-2.2-2.5-3.2-3.7-1.8-2.3-3.5-4.2-5.1-5.7-1.6-1.5-3.2-2.5-4.8-3-1.6-.5-3.3-.5-5,0-1.7.5-3.6,1.5-5.6,3.1l-13.1,10.2,16.2,20.9-8.9,6.9-39.4-50.7ZM207,145.5l14.6-11.3c2.8-2.2,4.5-4.6,4.9-7.1.4-2.5-.4-5.1-2.5-7.8-1.3-1.6-2.5-2.7-3.8-3.4-1.3-.7-2.5-.9-3.8-.9-1.3,0-2.5.4-3.7,1.1-1.2.6-2.4,1.4-3.5,2.3l-14.4,11.2,12.3,15.8Z"/>
  <path class="st0" d="M259.5,72.6c4.2-2.4,8.4-3.7,12.6-4,4.2-.3,8.2.2,12,1.6,3.8,1.4,7.3,3.5,10.5,6.4,3.2,2.9,6,6.3,8.2,10.3,2.3,4,3.8,8.2,4.6,12.4.8,4.2.8,8.4,0,12.3-.8,4-2.4,7.6-4.9,11.1-2.5,3.4-5.8,6.3-10,8.6-4.2,2.4-8.4,3.7-12.6,4-4.2.3-8.2-.2-12-1.6-3.8-1.4-7.3-3.5-10.5-6.4-3.2-2.9-6-6.3-8.2-10.3-2.2-4-3.7-8.1-4.5-12.3-.8-4.2-.8-8.4,0-12.3.8-4,2.4-7.7,4.9-11.1,2.4-3.4,5.7-6.3,9.9-8.7ZM264,80.6c-3,1.7-5.2,3.7-6.7,6.2-1.5,2.4-2.4,5-2.6,7.8-.2,2.8,0,5.6.8,8.6.8,2.9,1.9,5.7,3.4,8.4,1.5,2.7,3.3,5.1,5.4,7.3,2.1,2.2,4.4,3.9,6.9,5.2,2.5,1.2,5.2,1.9,8,1.8,2.8,0,5.8-.9,8.7-2.5,3-1.7,5.2-3.7,6.7-6.2,1.5-2.4,2.4-5,2.6-7.8.2-2.8,0-5.6-.8-8.6-.8-2.9-1.9-5.7-3.4-8.4-1.5-2.7-3.3-5.1-5.4-7.3-2.1-2.2-4.4-3.9-6.9-5.2-2.5-1.2-5.2-1.9-8-1.8-2.8,0-5.8.9-8.7,2.5Z"/>
  <path class="st0" d="M303.2,51.2l14.9-5.4,33.7,41.3h.2c0,0-.8-53.2-.8-53.2l14.7-5.3,21.8,60.5-10.1,3.6-16.8-46.7h-.2c0,0,0,52.8,0,52.8l-8.7,3.1-33.6-40.6h-.2c0,0,16.8,46.7,16.8,46.7l-10.1,3.6-21.8-60.5Z"/>
  <path class="st0" d="M413.4,17.2c4.7-.8,9.1-.7,13.2.4,4.1,1.1,7.7,2.9,10.8,5.5,3.1,2.5,5.8,5.7,7.9,9.5,2.1,3.8,3.6,7.9,4.4,12.4.8,4.5.9,9,.2,13.2-.7,4.3-2,8.1-4.1,11.6-2.1,3.5-4.8,6.4-8.2,8.8-3.4,2.4-7.5,4.1-12.2,4.9-4.7.9-9.1.7-13.2-.3-4.1-1.1-7.7-2.9-10.8-5.4-3.1-2.5-5.8-5.7-7.9-9.5-2.1-3.8-3.6-7.9-4.4-12.5-.8-4.5-.9-8.9-.2-13.1.7-4.3,2-8.1,4.1-11.6,2.1-3.5,4.8-6.4,8.2-8.9,3.4-2.4,7.5-4.1,12.2-4.9ZM415,26.2c-3.4.6-6.2,1.8-8.4,3.6-2.2,1.8-3.9,4-5,6.5-1.1,2.6-1.8,5.3-2,8.4-.2,3,0,6,.5,9.1s1.4,5.9,2.7,8.7c1.3,2.8,2.9,5.1,4.8,7.1,1.9,2,4.3,3.5,7,4.4,2.7.9,5.7,1.1,9.1.5,3.4-.6,6.2-1.8,8.4-3.6,2.2-1.8,3.9-4,5-6.5,1.1-2.5,1.8-5.3,2-8.4.2-3,0-6-.5-9.1s-1.4-5.9-2.7-8.7c-1.3-2.8-2.9-5.1-4.8-7.1-1.9-2-4.3-3.5-7-4.4-2.7-.9-5.7-1.1-9.1-.5Z"/>
  <path class="st0" d="M469.7,54.6c0,2.5.6,4.5,1.5,6.3.9,1.7,2.1,3.1,3.7,4.2,1.5,1.1,3.3,1.8,5.3,2.3,2,.4,4.1.6,6.4.5,2.5,0,4.5-.4,6.3-1.1,1.7-.6,3.1-1.4,4.2-2.3s1.8-2,2.2-3.2c.4-1.2.6-2.4.6-3.6,0-2.5-.7-4.3-1.8-5.4-1.2-1.1-2.4-1.9-3.7-2.3-2.3-.8-5-1.5-8-2.1-3.1-.6-6.8-1.5-11.3-2.5-2.8-.6-5.1-1.5-7-2.6-1.9-1.1-3.4-2.4-4.5-3.8-1.1-1.4-1.9-2.9-2.5-4.5-.5-1.6-.8-3.2-.8-4.9-.1-3.2.5-6.1,1.7-8.5,1.3-2.4,3-4.4,5.2-6.1,2.2-1.6,4.6-2.9,7.4-3.7,2.8-.8,5.6-1.3,8.5-1.4,3.4-.1,6.5.2,9.5,1,3,.8,5.7,2,8,3.6,2.3,1.7,4.2,3.7,5.6,6.2,1.4,2.5,2.2,5.4,2.3,8.8l-11.2.4c-.4-4.1-1.9-7-4.5-8.6-2.6-1.6-5.8-2.4-9.7-2.2-1.3,0-2.7.2-4,.5-1.4.3-2.6.8-3.7,1.5-1.1.7-2,1.6-2.7,2.7-.7,1.1-1,2.5-1,4.1,0,2.3.8,4,2.3,5.3,1.5,1.2,3.3,2.2,5.6,2.7.2,0,1.2.3,2.9.7,1.7.4,3.5.8,5.6,1.3,2.1.5,4.1.9,6,1.4,2,.4,3.4.8,4.2,1,2.1.6,4,1.4,5.6,2.5,1.6,1.1,2.9,2.3,4,3.8,1.1,1.4,1.9,3,2.5,4.6.6,1.7.9,3.3.9,5,.1,3.6-.5,6.7-1.9,9.3-1.4,2.6-3.2,4.7-5.6,6.4-2.3,1.7-5,3-8.1,3.8-3,.9-6.1,1.3-9.3,1.4-3.7.1-7.1-.2-10.4-1-3.3-.8-6.1-2.1-8.6-3.8-2.5-1.8-4.5-4.1-6-7-1.5-2.9-2.4-6.3-2.6-10.2l11.2-.4Z"/>
  <path class="st0" d="M518.8,10.7l51.8,4.8-.9,9.7-20.3-1.9-5,54.3-11.2-1,5-54.3-20.3-1.9.9-9.7Z"/>
  <path class="st0" d="M605.1,34.4c-.4,1.9-1.1,3.6-2.1,5-1,1.4-2.2,2.6-3.5,3.5-1.4.9-2.9,1.5-4.5,1.8-1.6.3-3.3.3-5,0-1.9-.4-3.5-1-4.9-2-1.4-1-2.6-2.1-3.4-3.5-.9-1.4-1.5-2.9-1.8-4.6-.3-1.7-.3-3.5,0-5.3.4-1.9,1.1-3.6,2.1-5s2.2-2.6,3.5-3.5c1.4-.9,2.9-1.5,4.5-1.8,1.7-.3,3.3-.3,5,0,1.7.3,3.2,1,4.6,1.9,1.4.9,2.6,2.1,3.5,3.4.9,1.4,1.6,2.9,1.9,4.6.4,1.7.4,3.5,0,5.5ZM602.3,33.9c.3-1.6.3-3,0-4.4-.2-1.4-.7-2.7-1.4-3.8s-1.6-2-2.7-2.8c-1.1-.8-2.3-1.3-3.7-1.5-1.4-.3-2.7-.3-4,0-1.3.3-2.5.8-3.6,1.6-1.1.8-2,1.7-2.8,2.9-.8,1.2-1.3,2.6-1.6,4.1-.3,1.5-.3,2.9-.1,4.3.2,1.4.6,2.6,1.3,3.8.7,1.1,1.6,2.1,2.7,2.9,1.1.8,2.4,1.4,3.9,1.7,1.4.3,2.7.3,4,0,1.3-.3,2.5-.8,3.6-1.6,1.1-.8,2-1.7,2.8-2.9.8-1.2,1.3-2.6,1.6-4.2ZM588.5,38.8l-2.3-.5,2.8-14.2,5.4,1.1c1.7.3,2.9.9,3.7,1.7.7.8,1,1.9.7,3.4-.3,1.3-.8,2.1-1.6,2.6-.8.5-1.8.6-2.9.5l2.7,7-2.6-.5-2.5-6.8-2.2-.4-1.2,6.1ZM592.7,31.2c.4,0,.9.2,1.3.2.4,0,.8,0,1.1,0,.3-.1.6-.3.9-.5.2-.2.4-.6.5-1.2,0-.4,0-.8,0-1.1-.1-.3-.4-.5-.6-.7-.3-.2-.6-.3-.9-.5-.4-.1-.7-.2-1.1-.3l-2.8-.6-.8,4.2,2.6.5Z"/>
  <path class="st0" d="M637.6,49.3l9.8,3.1-14,44.4-9.8-3.1,14-44.4ZM642.9,32.4l9.8,3.1-2.9,9.3-9.8-3.1,2.9-9.3Z"/>
  <path class="st0" d="M655.2,88.6c-.8,2.9-.6,5.3.8,7.1,1.4,1.9,3.4,3.3,5.9,4.3.9.4,1.9.7,3.1,1,1.2.3,2.4.5,3.5.5,1.2,0,2.2-.2,3.2-.7.9-.5,1.6-1.4,2.1-2.6.4-1.2.4-2.4-.1-3.5-.5-1.1-1.3-2.2-2.5-3.2-1.1-1-2.4-2-4-3-1.5-1-3.1-2.1-4.7-3.1-1.6-1.1-3.1-2.3-4.6-3.5-1.4-1.2-2.6-2.6-3.5-4-.9-1.5-1.5-3.1-1.7-4.9-.2-1.8.2-3.8,1-5.9.9-2.3,2.3-4.1,4.1-5.2,1.8-1.1,3.7-1.8,5.9-2.1,2.1-.3,4.4-.2,6.7.3,2.3.5,4.4,1.1,6.4,1.9,2.2.9,4.3,2,6.1,3.3,1.8,1.3,3.4,2.8,4.6,4.5,1.2,1.7,2,3.6,2.4,5.8.4,2.1.3,4.5-.4,7l-9.9-4c.5-2.5,0-4.4-1.3-5.9-1.3-1.4-3-2.6-5.2-3.4-.7-.3-1.5-.5-2.4-.8-1-.3-1.9-.4-2.8-.4-.9,0-1.8.2-2.6.5-.8.4-1.4,1-1.8,2-.5,1.2-.4,2.3,0,3.3.5,1,1.3,2.1,2.5,3.1,1.1,1,2.4,2,4,3s3.1,2.1,4.7,3.2c1.6,1.1,3.1,2.2,4.5,3.5,1.4,1.2,2.6,2.6,3.6,4.1.9,1.5,1.5,3.1,1.7,4.9.2,1.8,0,3.7-.9,5.8-1,2.6-2.5,4.5-4.4,5.8-1.9,1.3-4,2.1-6.3,2.5-2.3.4-4.7.3-7.2,0-2.5-.4-4.8-1.1-7.1-2-2.7-1.1-5.1-2.4-7.2-4-2.1-1.5-3.7-3.3-4.9-5.2-1.2-1.9-1.9-4-2.1-6.3-.2-2.3.2-4.7,1.1-7.3l9.5,3.8Z"/>
  <path class="st0" d="M700.7,73.4l6.9,3.5,6.3-12.4,9.2,4.6-6.3,12.4,8.3,4.2-3.5,6.8-8.3-4.2-11.2,22.2c-.5,1-.9,1.8-1.1,2.5-.3.7-.4,1.4-.3,2.1,0,.6.3,1.2.8,1.8.5.5,1.2,1.1,2.2,1.6.6.3,1.3.6,1.9.9.7.3,1.3.5,2.1.7l-3.6,7.1c-1.1-.4-2.1-.8-3.1-1.2-1-.4-2-.8-3.1-1.3-2.4-1.2-4.2-2.4-5.5-3.6-1.2-1.2-2.1-2.5-2.4-3.8-.4-1.3-.4-2.7,0-4.2.4-1.5,1-3.1,1.8-4.8l12.4-24.5-6.9-3.5,3.5-6.8Z"/>
  <path class="st0" d="M767,89.7l8.3,6-13.8,19.3h.1c1.2-.4,2.5-.7,3.9-.9,1.4-.1,2.7-.1,4.1,0,1.4.2,2.7.6,4,1.1,1.3.5,2.5,1.2,3.5,1.9,3,2.1,5.2,4.5,6.7,7.2,1.5,2.6,2.3,5.4,2.4,8.3.2,2.9-.3,5.8-1.3,8.8-1,3-2.5,5.8-4.5,8.6-1.8,2.5-3.9,4.8-6.3,6.7-2.4,1.9-4.9,3.3-7.5,4.2-2.7.9-5.4,1.1-8.2.7-2.8-.4-5.6-1.6-8.4-3.5-1.3-.9-2.5-1.9-3.7-3-1.2-1.1-2.2-2.3-3-3.6-.8-1.3-1.4-2.7-1.8-4.2-.4-1.5-.5-3.1-.2-4.8h-.1c0-.1-3.7,5.1-3.7,5.1l-7.9-5.7,37.4-52.2ZM772.2,143.9c1.2-1.7,2.2-3.5,2.9-5.4.7-1.9,1.1-3.8,1.1-5.7,0-1.9-.4-3.7-1.1-5.4-.8-1.7-2-3.2-3.7-4.4-3.5-2.5-7-3.2-10.6-2-3.5,1.2-6.7,3.8-9.6,7.8-1.4,1.9-2.4,3.8-3.1,5.8-.7,2-1,3.9-.9,5.7,0,1.8.5,3.6,1.3,5.2.8,1.6,2.1,3,3.8,4.2,1.9,1.4,3.8,2.1,5.7,2.3,1.9.2,3.7,0,5.4-.7,1.7-.6,3.4-1.6,4.9-2.9,1.5-1.3,2.8-2.8,4-4.5Z"/>
  <path class="st0" d="M802.4,138.5l7.8,6.7-30.3,35.3-7.8-6.7,30.3-35.3ZM813.9,125l7.8,6.7-6.3,7.4-7.8-6.7,6.3-7.4Z"/>
  <path class="st0" d="M803.3,181.5c-1.9,2.3-2.6,4.6-2,6.9.6,2.2,1.8,4.3,3.8,6.3.7.7,1.5,1.4,2.5,2.2,1,.8,2,1.4,3.1,1.8,1.1.5,2.1.7,3.2.6,1.1,0,2-.6,2.9-1.6.9-1,1.3-2.1,1.3-3.3,0-1.2-.4-2.5-1-3.9-.6-1.4-1.5-2.8-2.5-4.3-1-1.5-2-3.1-3.1-4.7-1.1-1.7-2-3.3-2.8-5-.8-1.7-1.4-3.4-1.7-5.1-.3-1.7-.1-3.4.4-5.2.5-1.7,1.6-3.4,3.3-5.1,1.8-1.8,3.7-2.8,5.8-3.2,2.1-.3,4.2-.2,6.2.4,2.1.6,4.1,1.6,6,2.9,1.9,1.3,3.6,2.7,5.1,4.2,1.7,1.7,3.1,3.5,4.3,5.4,1.2,1.9,2,3.9,2.5,5.9.4,2.1.4,4.1,0,6.3-.5,2.1-1.5,4.2-3.1,6.2l-7.6-7.6c1.4-2.1,1.8-4,1.1-5.9-.7-1.8-1.8-3.6-3.4-5.2-.5-.5-1.2-1.1-1.9-1.7-.8-.6-1.6-1.1-2.5-1.5-.8-.4-1.7-.6-2.6-.5-.9,0-1.7.4-2.4,1.1s-1.3,1.9-1.2,3.1c0,1.2.4,2.4,1.1,3.8.6,1.4,1.5,2.8,2.5,4.3,1,1.5,2.1,3.1,3.1,4.8,1,1.6,2,3.3,2.8,5,.8,1.7,1.4,3.4,1.7,5.1.3,1.7.2,3.4-.3,5.2-.5,1.7-1.5,3.4-3.1,5-2,2-4.1,3.2-6.3,3.6-2.2.5-4.5.4-6.8-.2-2.3-.6-4.5-1.5-6.6-2.9s-4-2.9-5.7-4.6c-2.1-2.1-3.8-4.2-5.1-6.5-1.3-2.2-2.1-4.5-2.5-6.7-.3-2.2-.2-4.5.5-6.6.7-2.2,2-4.2,3.9-6.2l7.3,7.3Z"/>
  <path class="st0" d="M870.4,208.2l22.2,30.6-5.8,4.2-40.9-3.2,16.4,22.7-6.6,4.8-24-33.2,5.8-4.2,40.4,2.5-14-19.4,6.6-4.8Z"/>
  <path class="st0" d="M878.9,307.2l-5-8.8,5.6-3.2v-.2c-2.7,0-5.3-.6-7.8-2.1-2.5-1.5-4.3-3.3-5.6-5.6-3-5.3-3.9-9.9-2.6-13.8,1.3-3.9,4.6-7.3,9.9-10.4l25.6-14.6,5.1,8.9-24.8,14.1c-3.5,2-5.7,4.1-6.3,6.3s-.3,4.5,1.1,7c1.1,1.9,2.2,3.3,3.5,4.2,1.3.9,2.6,1.5,4,1.7,1.4.2,2.9.1,4.4-.3,1.5-.4,3.1-1.1,4.7-2l23.4-13.4,5.1,8.9-40.4,23.1Z"/>
  <path class="st0" d="M932.3,338.1c.5,1.6,1.2,3.1,2.1,4.6.9,1.5,1.9,2.7,3,3.7,1.2,1,2.5,1.6,4,1.9,1.5.3,3.2.1,5-.5,2.5-.9,4.3-2.5,5.1-4.8.9-2.3.9-4.8-.1-7.5-.6-1.7-1.5-3-2.6-4-1.1-1-2.4-1.7-3.9-2.1-1.5-.4-3-.5-4.6-.4-1.6.1-3.1.5-4.6,1.1l-3.5-9.6c2.9-.9,5.8-1.4,8.6-1.3,2.8,0,5.4.6,7.8,1.6,2.4,1,4.6,2.5,6.4,4.5,1.9,2,3.4,4.5,4.4,7.5.8,2.3,1.3,4.7,1.5,7.2.1,2.5-.1,4.8-.8,7.1-.7,2.2-1.8,4.3-3.4,6.1-1.6,1.8-3.7,3.2-6.3,4.1-3,1.1-5.8,1.4-8.6.8-2.7-.5-5.1-2.1-7.2-4.6h-.2c.6,3.7-.2,6.9-2.2,9.8-2,2.9-4.9,5-8.7,6.4-2.8,1-5.5,1.4-8.2,1.1-2.6-.3-5.1-1.2-7.3-2.5-2.2-1.4-4.3-3.1-6-5.4-1.8-2.2-3.2-4.8-4.2-7.6-1.3-3.4-1.9-6.6-1.8-9.5,0-2.9.7-5.6,1.8-8,1.2-2.4,2.9-4.5,5.1-6.3,2.2-1.8,4.9-3.3,7.9-4.5l3.5,9.6c-3.6,1.2-6.3,3.2-8,5.9-1.7,2.8-1.9,6-.5,9.8,1.2,3.2,3.1,5.6,5.7,7.1,2.6,1.5,5.6,1.6,9,.4,2.3-.8,4-2,5-3.4,1-1.4,1.6-3,1.8-4.7.2-1.7,0-3.5-.5-5.4-.5-1.9-1.1-3.8-1.9-5.7l7.2-2.6Z"/>
  <path class="st0" d="M971,372.5l7.6,31.7-8.9,2.2-5.8-24.2-16.3.6v.2c1.7,1,3.3,2.4,4.6,4.3,1.3,1.9,2.2,3.8,2.7,5.9.7,3,.9,5.9.4,8.5-.4,2.6-1.4,5-2.8,7.1-1.4,2.1-3.3,3.8-5.6,5.3-2.3,1.4-4.9,2.5-7.8,3.2-2.4.6-5.1.8-7.9.6-2.8-.2-5.5-.8-8-2.1-2.5-1.2-4.8-3-6.8-5.3-2-2.4-3.5-5.4-4.4-9.1-.7-3-1-5.8-.8-8.6.2-2.7.8-5.2,1.9-7.5,1.1-2.3,2.7-4.3,4.7-6,2-1.7,4.6-3,7.6-3.8l2.4,10c-3.3,1.1-5.5,2.8-6.8,5.3-1.3,2.4-1.6,5.3-.8,8.5.5,2.1,1.3,3.8,2.3,5.1,1.1,1.3,2.3,2.2,3.7,2.8,1.4.6,3,.9,4.8.9,1.7,0,3.5-.2,5.4-.7,1.7-.4,3.3-1,4.7-1.9,1.4-.8,2.6-1.9,3.6-3.1.9-1.2,1.6-2.6,1.9-4.3s.3-3.5-.2-5.5c-.5-2.1-1.4-4-2.6-5.6-1.2-1.6-3-2.6-5.4-2.9l-2.4-10,35.1-1.5Z"/>
  <path class="st0" d="M985.3,439.9c.6,4.5,0,8.2-1.7,11.3-1.7,3.1-4.1,5.6-7,7.6-3,2-6.4,3.5-10.1,4.5-3.7,1-7.4,1.8-11,2.2-3.6.4-7.3.6-11.2.5-3.9,0-7.5-.7-10.9-1.9-3.4-1.2-6.3-3.1-8.7-5.6-2.4-2.6-3.9-6.1-4.4-10.6-.6-4.5,0-8.2,1.7-11.3,1.7-3.1,4-5.6,7-7.6,3-2,6.4-3.5,10.1-4.5,3.7-1,7.4-1.8,11-2.2,3.6-.4,7.3-.6,11.2-.5,3.9,0,7.5.7,10.9,1.9,3.4,1.2,6.3,3.1,8.7,5.6,2.4,2.6,3.9,6.1,4.4,10.6ZM928.8,446.9c.3,2.2,1.1,4,2.6,5.3,1.5,1.3,3.3,2.3,5.6,2.9,2.3.6,4.9.9,7.9.9,3,0,6.1-.2,9.4-.6,3.3-.4,6.3-1,9.2-1.7,2.8-.7,5.3-1.6,7.4-2.8,2.1-1.1,3.7-2.5,4.8-4.2,1.1-1.6,1.5-3.6,1.2-5.8-.3-2.3-1.2-4-2.6-5.3-1.5-1.3-3.3-2.2-5.7-2.8-2.3-.6-4.9-.9-7.9-.9s-6,.2-9.3.6-6.3,1-9.2,1.7c-2.9.7-5.3,1.6-7.4,2.8-2.1,1.1-3.6,2.5-4.7,4.1-1.1,1.6-1.5,3.6-1.2,5.8Z"/>
  <path class="st0" d="M922.4,537.3c0-2.7.7-5,1.7-6.9,1-1.9,2.4-3.4,4-4.5,1.7-1.1,3.6-1.9,5.8-2.4s4.5-.6,7-.6c2.4,0,4.7.5,6.9,1.1,2.2.6,4,1.6,5.6,2.9,1.6,1.3,2.8,2.9,3.7,4.8.9,1.9,1.3,4.2,1.2,6.8,0,2.6-.7,4.9-1.7,6.7-1,1.9-2.4,3.4-4,4.5-1.7,1.2-3.6,2-5.8,2.5-2.2.5-4.5.7-6.9.6-2.5,0-4.8-.4-6.9-1.1-2.1-.6-4-1.6-5.6-2.8-1.6-1.3-2.8-2.9-3.7-4.8-.9-2-1.3-4.3-1.2-7ZM989.1,530.5l-.2,6.8-66-37.2.3-7,66,37.4ZM940.6,531.1c-1.7,0-3.3,0-4.7.2-1.5.2-2.8.5-3.9,1-1.1.5-2,1.2-2.6,2-.7.8-1,1.9-1.1,3.2,0,1.3.2,2.3.8,3.3s1.4,1.7,2.5,2.2c1.1.6,2.3,1,3.8,1.4,1.5.3,3,.5,4.7.6,1.5,0,3,0,4.4-.2,1.4-.2,2.7-.5,3.9-1,1.2-.5,2.1-1.2,2.8-2.1.7-.9,1.1-2,1.2-3.4,0-1.4-.3-2.5-.9-3.5-.7-.9-1.5-1.7-2.7-2.2-1.1-.6-2.4-.9-3.8-1.2-1.4-.2-2.9-.4-4.4-.4ZM953.7,493.2c0-2.7.7-5,1.7-6.9,1-1.9,2.4-3.4,4-4.5,1.7-1.1,3.6-1.9,5.8-2.4,2.2-.5,4.5-.6,7-.6,2.4,0,4.7.5,6.8,1.1,2.2.6,4,1.6,5.6,2.9,1.6,1.3,2.8,2.9,3.7,4.8.9,1.9,1.3,4.2,1.2,6.8,0,2.6-.7,4.9-1.7,6.7-1,1.9-2.4,3.4-4,4.5-1.7,1.2-3.6,2-5.8,2.5-2.2.5-4.5.7-6.9.6-2.5,0-4.8-.4-6.9-1.1-2.1-.6-4-1.6-5.6-2.8-1.6-1.3-2.8-2.9-3.7-4.8-.9-2-1.3-4.3-1.2-7ZM971.9,487c-1.7,0-3.3,0-4.7.2-1.5.2-2.8.5-3.9,1-1.1.5-2,1.2-2.6,2-.7.8-1,1.9-1.1,3.2,0,1.3.2,2.4.8,3.3.6.9,1.4,1.7,2.5,2.3,1.1.6,2.3,1,3.8,1.4,1.5.3,3,.5,4.7.6,1.5,0,3,0,4.4-.2,1.4-.2,2.7-.5,3.9-1,1.2-.5,2.1-1.2,2.8-2.1.7-.9,1.1-2,1.2-3.4,0-1.4-.3-2.5-.9-3.5-.7-.9-1.5-1.7-2.7-2.2-1.1-.6-2.4-.9-3.8-1.2-1.4-.2-2.9-.4-4.4-.4Z"/>
  <path class="st0" d="M908.3,627.7c-6.8-1.7-11.4-4.9-13.8-9.5-2.4-4.7-2.7-10.6-.9-17.7.6-2.3,1.4-4.5,2.4-6.7,1-2.2,2.4-4.1,3.9-5.7,1.6-1.6,3.4-2.8,5.6-3.7,2.1-.8,4.5-1,7.2-.6l-2.5,10c-1.5,0-2.7.2-3.8.6-1,.5-1.9,1.1-2.7,2-.7.8-1.3,1.8-1.8,2.9-.4,1.1-.8,2.3-1.1,3.6-1,4-.8,7.2.8,9.6,1.5,2.4,4.1,4,7.9,4.9l6.9,1.7v-.2c-2.1-2-3.6-4.4-4.4-7.2-.8-2.8-.8-5.5-.1-8.3.9-3.6,2.3-6.5,4.2-8.7,1.9-2.2,4.1-3.9,6.7-5,2.6-1.1,5.4-1.7,8.5-1.7,3,0,6.2.3,9.5,1.2,3,.8,5.8,1.9,8.3,3.6,2.5,1.6,4.6,3.6,6.2,5.8,1.6,2.3,2.7,4.8,3.3,7.7.6,2.8.5,5.9-.3,9.1-.7,2.9-2,5.3-3.8,7.4-1.8,2.1-4.1,3.5-7,4.1v.2s6.2,1.6,6.2,1.6l-2.5,10-42.8-10.7ZM919.3,607c-.6,2.2-.6,4.2,0,6,.5,1.8,1.4,3.3,2.6,4.7,1.2,1.3,2.8,2.5,4.5,3.4,1.8.9,3.6,1.6,5.6,2.1s3.8.7,5.8.7c1.9,0,3.7-.3,5.3-.9,1.6-.6,3.1-1.6,4.3-2.9,1.2-1.3,2.1-3.1,2.6-5.2.6-2.2.6-4.2,0-5.9-.6-1.7-1.5-3.3-2.7-4.6-1.2-1.3-2.8-2.4-4.6-3.3-1.8-.9-3.6-1.6-5.5-2s-3.7-.7-5.6-.7c-1.9,0-3.7.3-5.3.9-1.6.6-3.1,1.5-4.3,2.8-1.2,1.3-2.1,2.9-2.7,5Z"/>
  <path class="st0" d="M919.5,649.8c-1.7-.6-3.4-1-5.1-1.2-1.8-.1-3.4,0-4.9.6-1.5.5-2.9,1.3-4.2,2.5-1.3,1.2-2.3,2.8-3.1,4.8-1.1,2.8-1.3,5.3-.8,7.5.5,2.2,1.9,4.1,3.9,5.9l-3.5,9.1c-2.2-1.4-3.9-3.1-5.3-5-1.4-1.9-2.4-4-2.9-6.2-.6-2.2-.8-4.5-.6-6.9.2-2.4.7-4.8,1.6-7.1,1.3-3.4,3-6.2,5.2-8.4,2.1-2.2,4.6-3.8,7.3-4.9,2.7-1,5.7-1.5,8.8-1.3,3.2.2,6.4.9,9.8,2.2,3.1,1.2,5.8,2.8,8.2,4.9,2.4,2,4.3,4.4,5.7,7,1.4,2.6,2.2,5.5,2.5,8.5.2,3-.3,6.2-1.5,9.4-1.3,3.4-3.2,6.2-5.7,8.4-2.5,2.2-5.2,3.7-8.3,4.6-3,.9-6.2,1.1-9.6.8-3.4-.4-6.6-1.4-9.7-3l12.3-31.9ZM917.2,674.6c1.6.5,3.1.7,4.7.7,1.6,0,3.1-.3,4.5-.8,1.4-.5,2.7-1.3,3.8-2.4,1.2-1.1,2-2.4,2.7-4,.6-1.7.9-3.3.9-4.9,0-1.6-.4-3.1-1.1-4.5-.7-1.4-1.6-2.6-2.7-3.8-1.2-1.1-2.6-2-4.2-2.7l-8.6,22.3Z"/>
  <path class="st0" d="M926.7,700.1l-4.4,9.2-41.9-20.2,4.4-9.2,41.9,20.2ZM942.7,707.8l-4.4,9.2-8.8-4.2,4.4-9.2,8.8,4.2Z"/>
  <path class="st0" d="M932.2,728.9l-4.9,9-56.5-30.6,4.9-9,56.5,30.6Z"/>
  <path class="st0" d="M879.3,733.7c-1.5-1-3.1-1.7-4.8-2.2-1.7-.5-3.3-.7-4.9-.5-1.6.2-3.2.7-4.6,1.6-1.5.9-2.8,2.2-4,4.1-1.6,2.5-2.4,4.9-2.3,7.1,0,2.2,1,4.4,2.6,6.6l-5.3,8.1c-1.8-1.8-3.2-3.8-4.1-6-.9-2.2-1.5-4.4-1.6-6.7-.1-2.3.2-4.6.9-6.9.7-2.3,1.7-4.5,3.1-6.6,2-3.1,4.3-5.5,6.8-7.2,2.5-1.7,5.3-2.8,8.1-3.2,2.9-.5,5.8-.3,8.9.5,3.1.8,6.1,2.2,9.1,4.2,2.8,1.8,5.1,4,7,6.5,1.9,2.5,3.3,5.2,4.1,8,.8,2.9,1,5.8.6,8.8-.4,3-1.6,6-3.5,8.9-2,3.1-4.4,5.4-7.3,7-2.9,1.6-5.9,2.5-9,2.7-3.2.2-6.3-.2-9.6-1.2-3.2-1.1-6.2-2.7-8.8-5l18.7-28.6ZM871.9,757.4c1.4.8,2.9,1.3,4.5,1.7,1.6.3,3.1.4,4.6.2,1.5-.2,2.9-.7,4.2-1.5,1.3-.8,2.5-1.9,3.4-3.4,1-1.5,1.6-3,1.9-4.6.3-1.6.2-3.1-.1-4.6-.4-1.5-1-2.9-1.9-4.2-.9-1.3-2.1-2.5-3.5-3.5l-13.1,20.1Z"/>
  <path class="st0" d="M875.9,784.5l-6,7.5-7.1-5.6h-.1c.8,1.2,1.4,2.4,1.8,3.8.4,1.4.6,2.9.6,4.5,0,1.6-.2,3.1-.7,4.7-.5,1.5-1.2,2.9-2.1,4.2-.7.9-1.3,1.6-1.6,1.9-.3.3-.7.6-1,1l-7.8-6.2c.5-.5,1.1-1,1.6-1.5.5-.5,1-1.1,1.5-1.6,1.1-1.4,1.8-2.9,2.2-4.5.4-1.6.4-3.3,0-5-.3-1.7-1.1-3.5-2.2-5.2-1.1-1.7-2.7-3.4-4.7-5l-17.3-13.8,6.4-8,36.5,28.9Z"/>
  <path class="st0" d="M783.4,830.6c-.9-.9-1.6-1.5-2.2-1.6-.6-.2-1.3,0-2,.7-.2.2-.5.5-.8.7-.3.3-.6.7-.9,1.1l-4.9-5.2c.2-.3.4-.7.7-1.2.3-.5.6-1,1-1.5.4-.5.7-1,1.1-1.4.4-.5.8-.8,1.1-1.1,1.5-1.4,3.1-2.3,4.7-2.6,1.6-.3,3.2.1,5,1.4.1-2.8,1-5.6,2.5-8.3s3.3-5,5.4-6.9c1.5-1.4,3.2-2.6,5-3.5,1.8-.9,3.6-1.4,5.4-1.6,1.8-.2,3.6,0,5.5.7,1.8.7,3.5,1.8,5,3.5,2,2.1,3.2,4.2,3.6,6.2.5,2,.4,4-.1,5.9-.6,1.9-1.5,3.8-2.7,5.5-1.2,1.8-2.6,3.5-4,5.2-1.1,1.5-2.2,2.9-3.4,4.2-1.1,1.3-2,2.5-2.7,3.6-.7,1.1-1.1,2.2-1.1,3.3,0,1.1.5,2.1,1.5,3.2.9,1,1.9,1.5,2.9,1.7,1,.2,2,.1,3-.2,1-.3,1.9-.8,2.9-1.5.9-.7,1.8-1.4,2.5-2,2.1-2,3.4-4,4-6.2.5-2.1,0-4.2-1.5-6.2l7.5-7c1.9,2.3,3.1,4.6,3.5,6.9.4,2.3.3,4.6-.3,6.8-.6,2.2-1.6,4.3-3.1,6.4-1.5,2-3.1,3.9-5,5.7-1.7,1.6-3.5,2.9-5.4,4.1-1.9,1.2-3.9,2-6,2.4-2,.4-4,.4-6-.1-2-.5-3.8-1.7-5.5-3.5l-16.4-17.5ZM799.8,833.1c.4-1.8,1.4-3.6,2.9-5.3,1.5-1.7,3-3.5,4.3-5.4.7-.9,1.3-1.8,1.8-2.7.5-.9.9-1.9,1-2.8.2-1,.1-1.9-.2-2.9-.3-1-.9-2-1.8-2.9-.8-.8-1.7-1.3-2.7-1.4-1-.1-2,0-3,.3-1,.3-1.9.8-2.9,1.4-.9.6-1.7,1.2-2.4,1.9-.8.8-1.6,1.7-2.4,2.8-.8,1.1-1.3,2.3-1.7,3.7s-.5,2.7-.3,4c.2,1.3.8,2.6,1.9,3.8l5.2,5.6Z"/>
  <path class="st0" d="M808.6,879.3l-8,6.4-40-50.3,8-6.4,40,50.3Z"/>
  <path class="st0" d="M755.2,858.1c-1.9-2.3-4.1-3.4-6.4-3.3-2.3.1-4.6.9-6.9,2.5-.8.5-1.7,1.2-2.6,2-.9.8-1.7,1.7-2.4,2.7-.7,1-1,2-1.2,3-.1,1.1.2,2.1,1,3.2.8,1.1,1.8,1.7,3,1.9,1.2.2,2.6.1,4-.3,1.5-.4,3-.9,4.7-1.6,1.7-.7,3.4-1.4,5.2-2.1,1.8-.7,3.6-1.3,5.4-1.8,1.8-.5,3.6-.7,5.3-.7,1.7,0,3.4.5,5,1.3,1.6.8,3,2.2,4.3,4.2,1.4,2.1,2.1,4.2,2,6.3,0,2.1-.6,4.1-1.6,6.1-1,1.9-2.3,3.7-4,5.4-1.7,1.6-3.4,3.1-5.1,4.2-2,1.3-4,2.4-6.1,3.2-2.1.8-4.2,1.2-6.3,1.3-2.1,0-4.2-.4-6.1-1.2-2-.9-3.8-2.3-5.5-4.2l8.9-6c1.8,1.8,3.6,2.5,5.6,2.2,1.9-.3,3.8-1.1,5.7-2.4.6-.4,1.3-.9,2-1.6.8-.7,1.4-1.4,1.9-2.1.5-.8.9-1.6,1-2.4.1-.9,0-1.7-.6-2.6-.7-1-1.6-1.6-2.8-1.8-1.2-.2-2.5,0-3.9.3-1.5.4-3,.9-4.7,1.6-1.7.7-3.5,1.4-5.3,2.2-1.8.7-3.6,1.3-5.4,1.8-1.8.5-3.6.7-5.3.7-1.7,0-3.4-.5-5-1.3-1.6-.8-3-2.1-4.3-4-1.5-2.3-2.3-4.6-2.4-6.9,0-2.3.4-4.5,1.4-6.6,1-2.1,2.4-4.1,4.1-5.9,1.7-1.8,3.6-3.4,5.6-4.8,2.4-1.6,4.9-2.9,7.3-3.7,2.4-.9,4.8-1.2,7.1-1.1,2.3,0,4.4.7,6.4,1.7,2,1.1,3.8,2.7,5.4,5l-8.5,5.8Z"/>
  <path class="st0" d="M722.1,936l-9.3,4.3-9.9-21.7h-.2c-.3,2.5-1.2,4.9-2.9,7.2-1.7,2.3-3.9,4.1-6.7,5.4-4.6,2.1-8.8,2.6-12.6,1.4-3.8-1.2-6.8-4.2-9-9l-13.3-29,9.3-4.3,12.2,26.6c1.6,3.3,3.5,5.4,5.4,6.3,2,.9,4.4.7,7.2-.6,1.6-.7,2.9-1.7,3.9-2.8,1-1.1,1.7-2.4,2.1-3.8.4-1.4.5-2.9.4-4.5-.1-1.6-.6-3.1-1.3-4.7l-11.4-25,9.3-4.3,26.8,58.4Z"/>
  <path class="st0" d="M616.3,919.7c-.4-1.2-.8-2-1.3-2.4-.5-.4-1.2-.5-2.1-.2-.3,0-.6.2-1,.3s-.8.3-1.3.6l-2.2-6.8c.3-.2.7-.5,1.2-.8.5-.3,1-.6,1.5-.9.5-.3,1.1-.6,1.6-.8.6-.2,1-.4,1.4-.6,2-.7,3.8-.8,5.4-.4,1.6.4,2.9,1.5,3.9,3.4,1.3-2.5,3.3-4.7,5.8-6.4,2.5-1.8,5.1-3.1,7.8-4,2-.7,4-1,6-1.1,2,0,3.9.2,5.6.8,1.7.6,3.3,1.6,4.6,2.9,1.4,1.4,2.4,3.1,3.1,5.3.9,2.7,1.1,5.1.7,7.2-.4,2-1.3,3.8-2.6,5.3-1.3,1.5-2.9,2.8-4.8,3.9-1.9,1.1-3.8,2.1-5.8,3-1.7.9-3.3,1.7-4.8,2.4-1.5.7-2.9,1.4-4,2.1-1.1.7-1.9,1.6-2.4,2.5-.5.9-.5,2.1,0,3.6.4,1.3,1,2.2,1.9,2.8.9.6,1.8,1,2.8,1.1,1,.1,2.1.1,3.2-.1,1.1-.2,2.2-.5,3.1-.8,2.7-.9,4.8-2.2,6.2-3.9,1.4-1.7,1.8-3.8,1.3-6.3l9.8-3.2c.8,2.9.8,5.5.3,7.8s-1.6,4.3-3.1,6c-1.5,1.7-3.3,3.2-5.5,4.4-2.2,1.2-4.5,2.2-7,3-2.2.7-4.4,1.2-6.6,1.4-2.3.2-4.4.1-6.4-.4-2-.5-3.8-1.4-5.4-2.7-1.6-1.3-2.7-3.1-3.5-5.4l-7.4-22.8ZM630.1,928.8c1.2-1.5,2.8-2.6,4.9-3.5,2.1-.9,4.2-1.9,6.2-3,1-.5,1.9-1.1,2.8-1.7.9-.6,1.6-1.3,2.1-2.1.6-.8.9-1.7,1.1-2.7.1-1,0-2.2-.4-3.4-.4-1.1-1-1.9-1.8-2.4-.9-.5-1.8-.9-2.8-1-1-.1-2.1-.1-3.2,0-1.1.2-2.1.4-3,.7-1.1.4-2.2.9-3.4,1.6-1.2.7-2.2,1.6-3.1,2.6-.9,1-1.5,2.2-1.9,3.5-.4,1.3-.3,2.7.2,4.3l2.4,7.3Z"/>
  <path class="st0" d="M613.8,957.8l-9.5,1.9-1.4-6.7h-.2c-1,2.7-2.6,5.1-4.8,7s-4.8,3.2-7.8,3.8c-5,1-9.2.5-12.6-1.5-3.4-2-5.6-5.6-6.7-10.8l-6.4-31.3,10.1-2,5.8,28.7c.8,3.6,2.1,6,3.9,7.3,1.7,1.3,4.1,1.7,7.1,1.1,1.7-.3,3.2-1,4.4-1.9s2.2-2,2.9-3.3c.7-1.3,1.2-2.7,1.4-4.3.2-1.6.2-3.2-.2-4.8l-5.5-26.9,10.1-2,9.3,45.6Z"/>
  <path class="st0" d="M512.4,925.2l9.7-.8.5,6.3h.2c1.2-2.8,3-4.9,5.5-6.3,2.5-1.4,5.3-2.2,8.2-2.4,3.6-.3,6.9,0,9.7,1.2,2.8,1.1,5.2,2.6,7.2,4.7,2,2.1,3.5,4.6,4.7,7.5,1.1,2.9,1.8,6.2,2.1,9.6.3,4.2,0,7.9-.8,11-.9,3.1-2.2,5.8-3.9,7.9-1.7,2.1-3.8,3.7-6.1,4.9-2.3,1.1-4.8,1.8-7.3,2-1.4.1-2.9,0-4.4,0-1.5-.1-3-.5-4.4-1-1.4-.5-2.8-1.1-4-2-1.2-.8-2.3-1.8-3.2-3h-.2s1.9,23.7,1.9,23.7l-10.2.8-5.1-64.1ZM549.9,945c-.2-2-.6-3.9-1.2-5.8-.7-1.9-1.6-3.5-2.7-4.9-1.2-1.4-2.6-2.5-4.3-3.3-1.7-.8-3.6-1.1-5.8-.9-2.3.2-4.2.8-5.8,1.9-1.6,1.1-2.8,2.5-3.7,4.1-.9,1.6-1.6,3.5-1.9,5.4-.4,2-.4,4-.3,6,.4,5.1,1.9,9.1,4.4,11.7,2.5,2.7,5.8,3.9,9.7,3.6,2.4-.2,4.4-.8,5.9-2,1.6-1.1,2.8-2.5,3.7-4.2.9-1.7,1.5-3.5,1.8-5.6.3-2,.3-4.1.2-6.2Z"/>
  <path class="st0" d="M494.6,945.5c0-1.8-.1-3.5-.6-5.2-.4-1.7-1.2-3.2-2.1-4.5-1-1.3-2.2-2.4-3.7-3.2-1.5-.8-3.4-1.3-5.5-1.3-3-.1-5.4.4-7.3,1.7-1.9,1.2-3.3,3.1-4.3,5.6l-9.7-.4c.6-2.5,1.7-4.7,3.1-6.6,1.4-1.9,3.1-3.5,5-4.8,1.9-1.3,4-2.2,6.4-2.8,2.3-.6,4.8-.9,7.3-.8,3.7.1,6.9.9,9.6,2.2,2.8,1.3,5.1,3.1,7,5.3s3.2,4.9,4.1,7.9c.9,3,1.2,6.4,1.1,10-.1,3.3-.8,6.4-1.9,9.3-1.2,2.9-2.8,5.5-4.8,7.6-2,2.2-4.5,3.9-7.3,5.1-2.8,1.2-6,1.7-9.4,1.6-3.7-.1-6.9-1-9.8-2.7-2.8-1.6-5.2-3.8-7-6.4-1.8-2.6-3.1-5.5-3.8-8.8-.7-3.3-.8-6.7-.3-10.1l34.2,1.3ZM470.4,951.3c0,1.6.3,3.2.9,4.7.5,1.5,1.2,2.9,2.2,4,.9,1.1,2.1,2.1,3.5,2.8,1.4.7,2.9,1.2,4.7,1.2,1.8,0,3.4-.2,4.9-.8,1.5-.6,2.8-1.4,3.9-2.5,1.1-1.1,2-2.3,2.7-3.8.7-1.5,1.1-3.1,1.2-4.8l-23.9-.9Z"/>
  <path class="st0" d="M447.2,986.2l-10.2-1.2,7.7-63.8,10.2,1.2-7.7,63.8Z"/>
  <path class="st0" d="M424.7,933.3c.3-3-.4-5.3-2.1-6.8-1.7-1.6-3.9-2.6-6.6-3.2-.9-.2-2-.3-3.3-.4-1.2,0-2.4,0-3.6.2-1.1.2-2.1.6-3,1.3-.8.7-1.3,1.6-1.5,2.9-.2,1.3,0,2.5.8,3.5.7,1,1.7,1.9,3,2.7,1.3.8,2.8,1.5,4.5,2.2,1.7.7,3.4,1.4,5.2,2.2,1.8.8,3.5,1.6,5.1,2.6,1.6.9,3,2,4.2,3.3,1.2,1.3,2,2.8,2.5,4.5.5,1.7.5,3.7,0,6-.5,2.5-1.5,4.4-3,5.9-1.5,1.4-3.3,2.5-5.4,3.1-2.1.7-4.3,1-6.6.9-2.3,0-4.6-.3-6.6-.7-2.4-.5-4.6-1.2-6.6-2.1-2-.9-3.8-2.1-5.3-3.6-1.5-1.5-2.7-3.2-3.5-5.2-.8-2-1.1-4.3-.9-6.9l10.5,2.1c0,2.5.8,4.3,2.3,5.5,1.6,1.2,3.5,2,5.7,2.4.7.1,1.6.2,2.6.3,1,0,2,0,2.9-.1.9-.2,1.7-.5,2.4-1,.7-.5,1.2-1.3,1.4-2.3.2-1.2,0-2.3-.7-3.3-.7-.9-1.7-1.8-3-2.6-1.3-.8-2.8-1.5-4.5-2.2-1.7-.7-3.4-1.5-5.2-2.2-1.7-.8-3.4-1.6-5.1-2.6-1.6-.9-3.1-2-4.2-3.3-1.2-1.3-2-2.8-2.6-4.5-.5-1.7-.6-3.7-.2-5.9.5-2.7,1.6-4.9,3.2-6.5,1.6-1.6,3.5-2.8,5.7-3.6,2.2-.8,4.6-1.2,7.1-1.3,2.5,0,5,.2,7.3.6,2.9.6,5.5,1.4,7.8,2.6,2.3,1.1,4.2,2.5,5.8,4.2,1.5,1.7,2.6,3.6,3.3,5.8.6,2.2.7,4.6.2,7.3l-10.1-2Z"/>
  <path class="st0" d="M352.6,898.8l9.6,3-1.9,6.2h.2c1.9-1.8,4.3-3,7.1-3.6,2.8-.6,5.4-.5,7.9.3,5.8,1.8,9.6,4.6,11.3,8.3,1.7,3.7,1.6,8.5-.2,14.3l-8.9,28.2-9.8-3.1,8.6-27.2c1.2-3.9,1.3-6.9.4-8.9-1-2.1-2.8-3.5-5.5-4.4-2.1-.6-3.9-.9-5.4-.7-1.6.2-3,.7-4.1,1.5-1.2.8-2.2,1.9-3,3.2-.8,1.4-1.5,2.9-2.1,4.6l-8.1,25.8-9.8-3.1,14-44.4ZM340.7,962l2.9-9.3,9.8,3.1-2.9,9.3-9.8-3.1ZM368.1,960.5l-2.9,9.3-9.8-3.1,2.9-9.3,9.8,3.1Z"/>
  <path class="st0" d="M317.8,954.3l-9.3-4.2,9.8-21.6h-.2c-1.1.7-2.3,1.2-3.6,1.6-1.3.4-2.6.6-4,.7-1.4,0-2.8,0-4.1-.3-1.4-.3-2.6-.7-3.9-1.2-3.3-1.5-6-3.4-7.9-5.7-2-2.3-3.3-4.8-4-7.6-.7-2.8-.9-5.7-.4-8.8.4-3.1,1.3-6.2,2.7-9.3,1.3-2.8,2.9-5.4,4.9-7.8,2-2.3,4.1-4.2,6.6-5.6,2.4-1.4,5.1-2.2,7.9-2.3,2.9-.2,5.8.4,9,1.8,1.4.6,2.8,1.4,4.2,2.2,1.4.8,2.6,1.8,3.6,3s1.9,2.4,2.6,3.7c.7,1.4,1,2.9,1.1,4.6h.2c0,0,2.6-5.7,2.6-5.7l8.9,4-26.5,58.5ZM302.1,902.1c-.9,1.9-1.5,3.9-1.8,5.9-.3,2-.3,4,0,5.8s1.1,3.5,2.2,5c1.1,1.5,2.6,2.7,4.5,3.6,3.9,1.8,7.5,1.8,10.8,0,3.2-1.8,5.9-5,7.9-9.6,1-2.1,1.6-4.2,1.9-6.3.3-2.1.2-4-.2-5.8-.4-1.8-1.2-3.4-2.3-4.8-1.1-1.4-2.6-2.6-4.5-3.4-2.1-1-4.1-1.3-6-1.1-1.9.2-3.6.8-5.2,1.8-1.6,1-3,2.2-4.2,3.8-1.2,1.6-2.2,3.3-3.1,5.2Z"/>
  <path class="st0" d="M264.9,928.8l-8.9-5,31.5-56,8.9,5-31.5,56Z"/>
  <path class="st0" d="M244.4,917l-8.7-5.5,5.2-8.2,8.7,5.5-5.2,8.2ZM253.9,902l-8.7-5.5,24.7-39.4,8.7,5.5-24.7,39.4Z"/>
  <path class="st0" d="M218.1,858.2c-1.4,2.6-1.8,5-1.1,7.3.6,2.3,2.1,4.3,4.4,6,1.1.8,2.3,1.5,3.8,2,1.5.5,3.1.7,4.8.5,1.7-.2,3.6-1,5.6-2.2,2-1.3,4-3.3,6.2-6.1,1.1-1.5,2.1-3.2,2.9-5,.8-1.8,1.2-3.6,1.3-5.4.1-1.8-.2-3.5-.9-5.2-.7-1.7-1.9-3.2-3.7-4.5-2.4-1.8-4.9-2.5-7.6-2.2-2.7.3-5.2,1.7-7.6,4.1l-8.2-6.1c4.4-4.3,9-6.6,13.8-7,4.8-.4,9.6,1.2,14.5,4.8,2.9,2.2,5.1,4.6,6.7,7.3,1.5,2.7,2.4,5.4,2.6,8.3.3,2.9,0,5.8-1.1,8.7-1,2.9-2.5,5.8-4.5,8.5-2.1,2.8-4.4,5.1-7,7-2.6,1.9-5.3,3.1-8.2,3.8-2.9.7-5.9.6-8.9,0-3.1-.7-6.1-2.2-9.2-4.5-2.2-1.6-4-3.4-5.5-5.4-1.5-2-2.6-4.1-3.3-6.4-.7-2.2-.9-4.6-.6-7,.3-2.4,1.2-4.8,2.7-7.3l8.2,6.1Z"/>
  <path class="st0" d="M179.6,870l-7.5-7,16.4-17.3h-.1c-2.4.5-4.9.5-7.7-.2-2.8-.7-5.3-2.1-7.5-4.2-3.7-3.5-5.7-7.2-6.1-11.2-.3-3.9,1.3-7.8,4.9-11.7l21.9-23.2,7.5,7-20.1,21.3c-2.4,2.7-3.7,5.2-3.8,7.4,0,2.2,1,4.3,3.2,6.4,1.3,1.2,2.6,2,4.1,2.5,1.4.5,2.9.7,4.3.5,1.5-.1,2.9-.6,4.3-1.3,1.4-.7,2.7-1.7,3.9-2.9l18.8-20,7.5,7-44.1,46.7Z"/>
  <path class="st0" d="M167.1,796c1.4-1.2,2.5-2.5,3.5-3.9,1-1.5,1.6-3,1.9-4.6.3-1.6.2-3.2-.2-4.9-.4-1.7-1.3-3.3-2.7-5-1.9-2.3-4-3.7-6.1-4.3-2.2-.6-4.5-.4-7.1.6l-6.3-7.4c2.3-1.2,4.6-1.9,7-2.2,2.4-.3,4.7-.1,6.9.4,2.2.6,4.4,1.5,6.4,2.8,2,1.3,3.8,2.9,5.5,4.9,2.4,2.8,4,5.7,4.9,8.6.9,2.9,1.2,5.8.8,8.7-.4,2.9-1.4,5.7-3.1,8.4-1.7,2.7-3.9,5.2-6.6,7.5-2.5,2.1-5.3,3.7-8.2,4.9-2.9,1.1-5.9,1.6-8.9,1.6-3,0-5.9-.7-8.6-2-2.8-1.3-5.3-3.2-7.5-5.9-2.4-2.8-3.9-5.8-4.6-9-.7-3.2-.7-6.4,0-9.5.7-3.1,2-6,3.9-8.8,1.9-2.8,4.4-5.1,7.3-7l22,26.2ZM146.5,782.1c-1.2,1.1-2.1,2.4-2.9,3.8-.8,1.4-1.3,2.8-1.5,4.3-.2,1.5-.1,3,.3,4.5.4,1.5,1.1,3,2.3,4.3,1.2,1.4,2.5,2.4,3.9,3.1,1.4.7,2.9,1.1,4.4,1.2,1.5,0,3.1-.1,4.6-.6,1.6-.5,3-1.3,4.4-2.3l-15.4-18.3Z"/>
  <path class="st0" d="M119.5,778.1l-5.5-7.9,7.4-5.1h-.1c-1.2.3-2.5.5-4,.5-1.5,0-3-.3-4.5-.7-1.5-.4-2.9-1.1-4.3-2-1.3-.9-2.5-2-3.4-3.3-.7-1-1.1-1.7-1.3-2.1-.2-.4-.4-.8-.7-1.2l8.1-5.7c.3.7.6,1.3,1,2,.4.7.7,1.3,1.2,1.9,1,1.4,2.2,2.6,3.7,3.4,1.4.9,3,1.4,4.8,1.5,1.8.2,3.6,0,5.6-.6,2-.6,4.1-1.6,6.2-3.1l18.2-12.7,5.9,8.4-38.2,26.6Z"/>
  <path class="st0" d="M103.6,655.1l3.1,6.5-6.1,4.8c4.4,1.3,7.8,3,10.3,5.1,2.5,2.2,4.5,5,6.2,8.5,2,4.3,3.1,8.6,3.1,12.8,0,4.2-.8,8.1-2.4,11.8-1.6,3.7-4,7-7.1,10.1-3.1,3-6.7,5.5-10.9,7.5-4.1,1.9-8.3,3.2-12.6,3.6-4.3.5-8.4.2-12.3-.9-3.9-1.1-7.5-3-10.7-5.6-3.3-2.7-5.9-6.2-8-10.5-1.5-3.1-2.5-6.3-3-9.6-.5-3.2-.5-6.4.2-9.4.6-3,1.8-5.8,3.6-8.5,1.8-2.6,4.2-4.9,7.3-6.8l4.7,9.9c-1.8,1.2-3.2,2.5-4.2,4.1-1,1.6-1.7,3.3-2,5.1-.3,1.8-.4,3.7,0,5.6.3,1.9.9,3.8,1.8,5.6,1.5,3.1,3.3,5.5,5.7,7.1,2.3,1.7,4.8,2.7,7.6,3.1,2.8.4,5.6.3,8.6-.2,3-.6,5.9-1.5,8.6-2.8,2.8-1.3,5.3-2.9,7.7-4.9,2.3-1.9,4.2-4.1,5.6-6.5,1.4-2.4,2.2-5,2.4-7.9.2-2.8-.5-5.8-1.9-8.9-1.2-2.6-2.6-4.8-4.3-6.4-1.7-1.7-3.5-2.9-5.6-3.6-2-.7-4.2-1-6.6-.7-2.3.2-4.7.9-7.2,2l7.3,15.5-7.7,3.7-11.7-24.7,30.6-14.4Z"/>
  <path class="st0" d="M40.7,667.7l-3.4-9.7,60.6-21.4,3.4,9.7-60.6,21.4Z"/>
  <path class="st0" d="M24.2,611.9l9.4-2.5,2.6,9.9-9.4,2.5-2.6-9.9ZM40.1,634.3l-9.4,2.5-2.6-9.9,9.4-2.5,2.6,9.9ZM84,588.2l2.6,9.7-6.3,1.7v.2c2.6.6,4.9,2,6.9,4,2,2,3.3,4.3,4,6.8,1.6,5.9,1.2,10.6-1,14-2.2,3.4-6.3,5.9-12.2,7.5l-28.5,7.5-2.6-9.9,27.6-7.3c3.9-1,6.5-2.5,7.8-4.5,1.2-1.9,1.5-4.3.8-7-.6-2.1-1.3-3.7-2.3-5-1-1.2-2.2-2.1-3.5-2.7s-2.8-.9-4.4-.8c-1.6,0-3.3.3-5,.7l-26.1,6.9-2.6-9.9,45-11.9Z"/>
  <path class="st0" d="M18.7,588.8l-1.4-10.2,23.6-3.4v-.2c-2.3-1-4.3-2.6-6-4.8-1.7-2.3-2.8-4.9-3.3-7.9-.7-5,0-9.2,2.2-12.5,2.2-3.3,5.9-5.3,11.1-6l31.6-4.5,1.4,10.2-29,4.1c-3.6.6-6.1,1.8-7.6,3.4-1.4,1.7-1.9,4-1.5,7,.2,1.7.8,3.2,1.6,4.5.8,1.3,1.8,2.3,3.1,3.1,1.2.8,2.6,1.4,4.2,1.7,1.6.3,3.2.4,4.8.1l27.2-3.9,1.4,10.2-63.6,9Z"/>
  <path class="st0" d="M28.8,535.5v-10.9s34.7-9.2,34.7-9.2v-.2l-34.8-8.6v-10.3s34.7-8.5,34.7-8.5v-.2l-34.8-9.3v-10.4s46.5,14.4,46.5,14.4v10.5s-34.5,8.7-34.5,8.7v.2l34.6,8.4v10.8s-46.5,14.5-46.5,14.5Z"/>
  <path class="st0" d="M57,453c1.8.2,3.5.2,5.3,0,1.7-.3,3.3-.8,4.7-1.7,1.4-.8,2.6-2,3.5-3.4,1-1.4,1.6-3.2,1.9-5.4.4-3,0-5.5-1-7.4-1-2-2.8-3.6-5.2-4.8l1.3-9.6c2.4.9,4.5,2.1,6.3,3.7,1.8,1.6,3.2,3.4,4.3,5.4,1.1,2,1.8,4.2,2.2,6.6.4,2.4.4,4.8,0,7.3-.5,3.6-1.5,6.8-3.1,9.4-1.6,2.6-3.5,4.8-5.9,6.4-2.4,1.6-5.2,2.8-8.3,3.3-3.1.6-6.4.6-10,.2-3.3-.4-6.3-1.4-9.1-2.8-2.8-1.4-5.2-3.3-7.2-5.5-2-2.2-3.4-4.8-4.4-7.7-.9-2.9-1.2-6.1-.7-9.5.5-3.6,1.7-6.8,3.6-9.5,1.9-2.7,4.2-4.8,7-6.4,2.8-1.6,5.8-2.6,9.2-3,3.4-.4,6.7-.2,10.1.7l-4.5,33.9ZM53.5,428.3c-1.6,0-3.2,0-4.8.4-1.6.4-3,1-4.2,1.8-1.2.8-2.3,1.9-3.2,3.2-.9,1.3-1.4,2.8-1.7,4.5-.2,1.8-.1,3.4.3,5,.4,1.5,1.1,2.9,2.1,4.1,1,1.2,2.1,2.2,3.5,3,1.4.8,3,1.4,4.7,1.7l3.2-23.7Z"/>
  <path class="st0" d="M21,402l2.2-10,9.5,2.1-2.2,10-9.5-2.1ZM38.3,405.7l2.2-10,45.5,9.8-2.2,10-45.5-9.8Z"/>
  <path class="st0" d="M43.2,382.7l2.8-9.3,6.5,2h.2c-2-2.4-3.4-4.9-4-7.7-.7-2.8-.6-5.7.3-8.6,1.5-4.9,3.9-8.3,7.3-10.4,3.4-2,7.6-2.3,12.6-.8l30.6,9.3-3,9.8-28-8.5c-3.5-.9-6.3-1-8.3,0-2,.9-3.4,2.8-4.3,5.7-.5,1.7-.7,3.2-.5,4.8.2,1.5.7,2.9,1.5,4.1.8,1.2,1.8,2.3,3.1,3.3,1.3,1,2.7,1.7,4.3,2.2l26.3,8-3,9.8-44.5-13.5Z"/>
  <path class="st0" d="M92.1,343.5l4.6-11.6,11.3,4.5-4.6,11.6-11.3-4.5Z"/>
</svg>