<?xml version="1.0" encoding="UTF-8"?>
<svg id="Layer_2" xmlns="http://www.w3.org/2000/svg" version="1.1" viewBox="0 0 1000 1000">
  <!-- Generator: Adobe Illustrator 29.2.1, SVG Export Plug-In . SVG Version: 2.1.0 Build 116)  -->
  <defs>
    <style>
      .st0 {
        fill: #fff;
      }
    </style>
  </defs>
  <path class="st0" d="M123.6,270.2c2.3,1.2,4.6,1.6,6.8,1.1,2.2-.5,4.1-1.9,5.6-4.2,1.5-2.3,2.1-4.6,1.7-6.8-.3-2.2-1.2-4.3-2.6-6.3-1.4-2-3-3.8-5-5.4-1.9-1.6-3.7-3.1-5.4-4.4h-.3c1.3,2.6,1.9,5.2,1.7,8-.2,2.7-1.1,5.3-2.7,7.8-1.6,2.6-3.6,4.6-5.8,6.1-2.2,1.5-4.5,2.5-7.1,3-2.5.5-5.1.4-7.9-.2-2.7-.6-5.5-1.8-8.2-3.6-2.6-1.7-4.7-3.6-6.4-5.9-1.7-2.2-2.9-4.7-3.5-7.3-.6-2.6-.7-5.4-.1-8.3.6-2.9,1.8-5.8,3.6-8.7,2.4-3.8,5.2-6.4,8.2-7.9,3-1.5,6.3-2.2,9.7-1.9,3.4.2,7,1.2,10.8,2.8,3.8,1.6,7.6,3.7,11.5,6.2,3.2,2.1,6.2,4.5,9.1,7.3,2.8,2.8,5.1,5.8,6.7,9.1,1.7,3.3,2.5,6.8,2.5,10.4,0,3.7-1.2,7.4-3.6,11.2-1.4,2.1-3,3.9-5,5.4-1.9,1.4-4,2.5-6.2,3.1-2.2.6-4.5.8-6.9.6-2.4-.2-4.7-1-7-2.3l5.6-8.7ZM95.2,240c-1,1.6-1.6,3.1-1.8,4.7-.2,1.6,0,3,.5,4.5.5,1.4,1.3,2.8,2.4,4,1.1,1.2,2.3,2.3,3.8,3.2,1.5,1,3,1.7,4.6,2.2,1.6.5,3.2.7,4.7.6,1.5-.1,3-.5,4.4-1.3,1.4-.8,2.6-1.9,3.6-3.5,1.1-1.6,1.7-3.3,1.8-4.9.2-1.6,0-3.2-.5-4.6-.5-1.5-1.4-2.8-2.4-4.1-1.1-1.3-2.4-2.4-3.9-3.3-1.4-.9-2.9-1.6-4.5-2-1.6-.4-3.1-.6-4.6-.4-1.5.2-3,.6-4.4,1.5s-2.6,2.1-3.7,3.7Z"/>
  <path class="st0" d="M136.5,198.4l7.6-8.3,34.7,15.6h.1c0-.1-18.9-33-18.9-33l7.3-7.9,23.3,44.2-7.9,8.6-46.2-19.2Z"/>
  <path class="st0" d="M222.4,180.3c-2.8,2.5-5.8,4.2-8.8,5.2-3,1-6,1.3-9,1-3-.3-5.8-1.3-8.6-2.9-2.8-1.6-5.4-3.8-7.8-6.5-2.3-2.7-4.1-5.5-5.3-8.5-1.2-3-1.7-6-1.6-9,.1-3,.9-5.9,2.3-8.8,1.4-2.9,3.5-5.5,6.4-8,2.8-2.5,5.8-4.2,8.8-5.2,3-1,6-1.3,9-1,3,.3,5.8,1.3,8.6,2.9,2.8,1.6,5.4,3.7,7.7,6.5,2.4,2.8,4.2,5.6,5.4,8.6,1.2,3,1.7,6,1.6,9-.1,3-.9,5.9-2.3,8.8-1.4,2.9-3.5,5.5-6.4,8ZM217,174.1c1.7-1.5,2.9-3.2,3.6-5,.6-1.8.9-3.7.7-5.6-.2-1.9-.8-3.8-1.7-5.6-.9-1.8-2-3.5-3.4-5.1-1.3-1.5-2.8-2.9-4.5-4-1.7-1.2-3.5-2-5.3-2.4-1.8-.5-3.7-.5-5.6-.1-1.9.4-3.8,1.3-5.5,2.8-1.7,1.5-2.9,3.2-3.6,5-.6,1.8-.9,3.7-.7,5.6s.7,3.8,1.7,5.6c.9,1.9,2,3.5,3.3,5,1.4,1.6,2.9,2.9,4.5,4.1,1.7,1.2,3.5,2,5.3,2.4,1.9.5,3.7.5,5.7.1,1.9-.4,3.8-1.3,5.5-2.8Z"/>
  <path class="st0" d="M218.7,120.8l8.1-5.5,3.9,5.7h.3c-.2-3,.4-5.8,1.7-8.5,1.3-2.7,3.2-4.9,5.8-6.6,4.3-2.9,8.4-4.1,12.3-3.5,4,.5,7.4,3,10.4,7.5l18.1,26.8-8.6,5.8-16.6-24.5c-2.2-3-4.3-4.8-6.5-5.4-2.1-.6-4.5,0-7.1,1.7-1.5,1-2.6,2.1-3.4,3.4-.8,1.3-1.3,2.7-1.5,4.2-.2,1.5,0,3,.3,4.6.4,1.6,1.1,3,2,4.5l15.5,23-8.6,5.8-26.3-39Z"/>
  <path class="st0" d="M286.4,72.1c2-.9,3.9-1.9,5.6-3.1,1.7-1.2,3.2-2.5,4.4-3.9,1.2-1.5,2-3,2.6-4.7.5-1.7.6-3.5.1-5.4l7.7-3.5,26,58.1-10.4,4.6-18.4-41-14.3,6.4-3.3-7.5Z"/>
  <path class="st0" d="M352.8,33c4.3-1.4,8.2-1.5,11.6-.4,3.4,1.1,6.3,3,8.8,5.6,2.5,2.6,4.6,5.7,6.3,9.2,1.7,3.5,3.1,7,4.2,10.5,1.1,3.5,2,7.1,2.6,11,.6,3.9.7,7.6,0,11.2-.6,3.6-1.9,6.8-4,9.7-2.1,2.9-5.3,5-9.7,6.4-4.3,1.4-8.2,1.5-11.6.4-3.4-1.1-6.3-3-8.8-5.6-2.5-2.6-4.6-5.7-6.3-9.2-1.7-3.5-3.1-7-4.2-10.5-1.1-3.5-2-7.1-2.6-11-.6-3.9-.7-7.6,0-11.2.6-3.6,1.9-6.8,4-9.7,2.1-2.9,5.3-5,9.7-6.4ZM370.2,87.9c2.1-.7,3.7-1.9,4.8-3.6,1.1-1.7,1.7-3.7,1.8-6.1.2-2.4,0-5-.6-8-.5-2.9-1.3-6-2.3-9.2-1-3.2-2.1-6.1-3.4-8.8-1.2-2.7-2.6-5-4.1-6.9-1.5-1.9-3.2-3.2-5-4-1.8-.8-3.8-.8-6-.2-2.2.7-3.8,1.9-4.8,3.6-1,1.7-1.6,3.7-1.8,6.1-.2,2.4,0,5.1.6,8,.5,2.9,1.3,6,2.3,9.1,1,3.2,2.1,6.1,3.4,8.9,1.2,2.7,2.6,5,4.1,6.9,1.5,1.8,3.2,3.2,5,4,1.8.8,3.8.8,6,.2Z"/>
  <path class="st0" d="M415.3,17.1l49-6.2,1.1,8.6-31.7,50.9,38.5-4.9,1.2,9.8-52.8,6.7-1.2-9.2,31.8-50.2-34.7,4.4-1.2-9.8Z"/>
  <path class="st0" d="M520.3,75.2h-10.2s0-6.5,0-6.5h-.2c-1.3,2.4-3.2,4.3-5.7,5.7-2.5,1.4-5.1,2.1-7.7,2.1-6.2,0-10.7-1.5-13.4-4.6-2.8-3.1-4.1-7.7-4.1-13.9v-29.8s10.4,0,10.4,0v28.8c0,4.1.8,7,2.4,8.7,1.6,1.7,3.8,2.5,6.6,2.5,2.2,0,4-.3,5.5-1,1.5-.7,2.6-1.6,3.5-2.7.9-1.1,1.6-2.5,2-4,.4-1.6.6-3.3.6-5.1v-27.3s10.4,0,10.4,0v47ZM486.5,20.5v-9.8s10.4,0,10.4,0v9.8s-10.4,0-10.4,0ZM512.5,10.6v9.8s-10.4,0-10.4,0v-9.8s10.4,0,10.4,0Z"/>
  <path class="st0" d="M534.2,29.3l9.7.9-.9,9.1h.2c.4-1.2,1.1-2.4,2.1-3.5,1-1.1,2.2-2.1,3.5-3,1.3-.9,2.8-1.5,4.4-2,1.6-.5,3.1-.6,4.7-.5,1.2.1,2,.2,2.5.3.4.1.9.2,1.4.3l-1,10c-.7-.2-1.4-.4-2.2-.5-.7-.2-1.5-.3-2.2-.3-1.8-.2-3.4,0-5,.6-1.6.5-3,1.4-4.3,2.7-1.3,1.2-2.3,2.8-3.2,4.8-.9,1.9-1.4,4.2-1.7,6.8l-2.1,22.3-10.3-1,4.5-46.8Z"/>
  <path class="st0" d="M595.6,54c.1-2.9-.6-5.3-2.2-7.1-1.6-1.8-3.8-3-6.7-3.5-1.3-.2-2.8-.3-4.3-.1-1.6.2-3.1.7-4.6,1.7-1.5,1-2.8,2.5-4.1,4.5-1.2,2-2.2,4.8-2.9,8.3-.4,1.9-.5,3.9-.4,5.8,0,2,.5,3.8,1.2,5.5.7,1.7,1.7,3.1,3.1,4.3,1.4,1.2,3.2,2,5.4,2.4,3,.6,5.6.1,7.9-1.4,2.3-1.5,4-3.8,5.1-7.1l10.2,1.9c-2.1,5.8-5.2,10-9.4,12.5-4.2,2.5-9.3,3.2-15.3,2.1-3.6-.7-6.7-1.9-9.3-3.6-2.5-1.7-4.6-3.9-6.1-6.3-1.5-2.5-2.5-5.3-2.9-8.4-.4-3.1-.3-6.4.3-9.8.7-3.5,1.7-6.6,3.3-9.5,1.5-2.9,3.5-5.2,5.8-7.1,2.3-1.9,5-3.2,8.1-3.9,3.1-.7,6.5-.8,10.3,0,2.7.5,5.2,1.3,7.5,2.5,2.3,1.1,4.2,2.6,5.9,4.3,1.6,1.7,2.8,3.7,3.6,6.1.8,2.3,1,4.9.7,7.8l-10.2-1.9Z"/>
  <path class="st0" d="M625.7,26.3l9.9,3.1-7.2,23h.2c1.8-1.6,4.2-2.7,7-3.3,2.8-.6,5.7-.5,8.7.5,4.9,1.5,8.4,4,10.5,7.4,2,3.4,2.3,7.7.7,12.8l-9.6,30.9-9.9-3.1,8.8-28.2c1-3.6,1-6.4.1-8.4-.9-2-2.8-3.5-5.8-4.4-1.7-.5-3.3-.7-4.8-.5-1.5.2-2.9.7-4.2,1.5-1.3.8-2.4,1.8-3.3,3.1-1,1.3-1.7,2.7-2.2,4.4l-8.2,26.5-9.9-3.1,19.3-62.1Z"/>
  <path class="st0" d="M670.3,88.1c-.7,1.7-1.2,3.4-1.4,5.1-.2,1.8-.1,3.4.3,5,.4,1.6,1.2,3,2.3,4.4,1.1,1.3,2.7,2.4,4.7,3.3,2.8,1.2,5.3,1.6,7.5,1.2,2.2-.4,4.3-1.7,6.2-3.7l9,4c-1.5,2.1-3.3,3.8-5.3,5.1-2,1.3-4.2,2.2-6.5,2.7-2.3.5-4.6.6-7,.3-2.4-.3-4.8-1-7.1-2-3.4-1.5-6.1-3.4-8.2-5.6-2.1-2.3-3.6-4.8-4.5-7.6-.9-2.8-1.2-5.8-.9-9,.3-3.2,1.2-6.4,2.7-9.8,1.4-3,3.1-5.7,5.3-8,2.2-2.3,4.6-4.1,7.4-5.4,2.7-1.3,5.6-2,8.7-2.1,3.1,0,6.2.6,9.5,2,3.4,1.5,6.1,3.6,8.2,6.2,2.1,2.6,3.5,5.5,4.2,8.6.7,3.1.8,6.4.3,9.7-.5,3.4-1.7,6.6-3.5,9.6l-31.6-14ZM695.2,91.7c.6-1.5.9-3.1,1-4.8,0-1.6,0-3.1-.6-4.6-.5-1.4-1.2-2.8-2.2-4-1-1.2-2.3-2.2-3.9-2.9-1.7-.7-3.3-1.1-4.9-1.1-1.6,0-3.1.3-4.6.9-1.4.6-2.7,1.5-3.9,2.6-1.2,1.1-2.2,2.5-2.9,4.1l22.1,9.8Z"/>
  <path class="st0" d="M722.1,83.6l8.5,4.8-4.5,7.9h.2c.9-.9,2-1.7,3.4-2.3,1.4-.6,2.8-1.1,4.4-1.3,1.6-.3,3.2-.3,4.8,0,1.6.2,3.1.7,4.5,1.5,1.1.6,1.8,1,2.1,1.3.4.3.7.6,1.1.8l-4.9,8.7c-.6-.5-1.2-.9-1.8-1.4-.6-.5-1.2-.9-1.9-1.2-1.5-.9-3.1-1.4-4.8-1.5-1.7-.1-3.4,0-5,.7-1.7.6-3.3,1.6-4.9,3.1-1.6,1.4-3,3.3-4.3,5.5l-11,19.5-9-5.1,23-41Z"/>
  <path class="st0" d="M751.5,94.6l4.9-3.8,6.2,8.8,6-9.1,5.2,3.4-6,9.1,10.4,2.2-1.5,6.1-10.6-2.9.6,10.6-6,.3-.4-11-10.1,4-2.3-5.8,10-3.6-6.5-8.5Z"/>
  <path class="st0" d="M781.4,121.2l8.3,6.3-28.5,37.4-8.3-6.3,28.5-37.4ZM792.2,107l8.3,6.3-6,7.8-8.3-6.3,6-7.8Z"/>
  <path class="st0" d="M800.8,135.9l7.3,6.6-4.6,5.1v.3c2.9-.9,5.8-1,8.7-.4,2.9.6,5.5,1.9,7.8,4,3.8,3.5,5.9,7.2,6.4,11.1.4,4-1.2,7.9-4.7,11.9l-21.7,24-7.7-7,19.8-21.9c2.4-2.8,3.6-5.3,3.6-7.6,0-2.2-1.1-4.4-3.4-6.4-1.3-1.2-2.7-2-4.2-2.5-1.5-.5-2.9-.6-4.4-.4-1.5.2-2.9.7-4.3,1.4-1.4.8-2.7,1.8-3.8,3l-18.6,20.6-7.7-7,31.5-34.9Z"/>
  <path class="st0" d="M841.7,174.1l6.5,7.4-5.2,4.5v.3c3-.5,5.9-.3,8.7.6,2.8.9,5.2,2.6,7.2,4.9,3.4,3.9,5.1,7.8,5,11.8,0,4-2.1,7.7-6.1,11.3l-24.3,21.2-6.8-7.8,22.3-19.4c2.7-2.5,4.2-4.9,4.5-7.1.3-2.2-.6-4.5-2.6-6.8-1.2-1.3-2.4-2.3-3.8-2.9-1.4-.6-2.8-.9-4.3-.9-1.5,0-3,.3-4.5.9-1.5.6-2.9,1.4-4.2,2.6l-20.9,18.2-6.8-7.8,35.5-30.9Z"/>
  <path class="st0" d="M860.8,238.3c-1.5,1-2.8,2.2-3.9,3.6-1.1,1.4-1.9,2.9-2.4,4.4-.5,1.6-.6,3.2-.3,5,.3,1.7,1,3.5,2.2,5.3,1.7,2.5,3.6,4.1,5.8,4.9,2.1.8,4.5.8,7.2,0l5.6,8.1c-2.4,1-4.8,1.5-7.2,1.5-2.4,0-4.7-.3-6.9-1.1-2.2-.8-4.2-1.9-6.1-3.5-1.9-1.5-3.6-3.3-5-5.5-2.1-3.1-3.4-6.1-4.1-9.1-.6-3-.6-6,.1-8.8.7-2.9,2-5.6,3.9-8.1,1.9-2.5,4.4-4.8,7.4-6.9,2.8-1.9,5.7-3.2,8.7-4.1,3.1-.8,6.1-1.1,9.1-.7,3,.3,5.8,1.3,8.5,2.8,2.7,1.5,5,3.8,7,6.7,2.1,3.1,3.3,6.2,3.7,9.5.4,3.3,0,6.5-.9,9.5-1,3-2.6,5.9-4.9,8.5-2.2,2.6-4.9,4.7-8.1,6.3l-19.5-28.5ZM880.1,254.4c1.3-1,2.4-2.2,3.3-3.5.9-1.3,1.6-2.7,1.9-4.2.4-1.5.4-3,.2-4.5-.2-1.6-.8-3.1-1.8-4.5-1-1.5-2.2-2.7-3.6-3.6-1.4-.9-2.8-1.4-4.3-1.7-1.5-.2-3.1-.2-4.7.1-1.6.3-3.2,1-4.6,1.9l13.7,20Z"/>
  <path class="st0" d="M907.8,262.1l4.6,8.7-6.1,3.2v.2c3,.2,5.7,1.1,8.2,2.6,2.5,1.6,4.5,3.7,5.9,6.5,2.4,4.6,3.1,8.8,2.1,12.7-1,3.9-3.8,7.1-8.6,9.5l-28.6,15-4.8-9.2,26.2-13.8c3.2-1.8,5.2-3.8,6-5.8.8-2.1.5-4.5-1-7.2-.8-1.6-1.8-2.8-3-3.7-1.2-.9-2.5-1.6-4-1.9-1.4-.3-3-.4-4.6-.2-1.6.2-3.1.7-4.6,1.5l-24.6,12.9-4.8-9.2,41.6-21.9Z"/>
  <path class="st0" d="M941.1,332.1l2.6,7.4,13.3-4.6,3.4,9.8-13.3,4.6,3.1,8.9-7.3,2.5-3.1-8.9-23.7,8.2c-1,.4-1.9.7-2.6,1.1-.7.3-1.3.8-1.7,1.3-.4.5-.6,1.1-.7,1.8,0,.7.1,1.6.5,2.7.2.7.5,1.4.8,2s.6,1.3,1,2l-7.6,2.6c-.5-1-1-2.1-1.4-3.1-.5-1-.9-2-1.3-3.1-.9-2.6-1.4-4.7-1.4-6.5,0-1.7.2-3.2.9-4.4.6-1.2,1.6-2.2,2.9-3,1.3-.8,2.9-1.6,4.7-2.3l26.2-9.1-2.6-7.4,7.3-2.5Z"/>
  <path class="st0" d="M952.9,367.4l2.5,9.4-8.8,2.4v.2c1.4,0,2.7.2,4.1.7,1.4.5,2.7,1.3,4,2.2,1.3.9,2.4,2.1,3.4,3.4,1,1.3,1.7,2.7,2.1,4.2.3,1.2.5,2,.6,2.4,0,.5.1.9.2,1.4l-9.7,2.6c0-.7-.2-1.5-.3-2.2-.1-.8-.3-1.5-.4-2.2-.5-1.7-1.2-3.2-2.3-4.5-1.1-1.3-2.4-2.3-4-3.1-1.6-.8-3.5-1.2-5.6-1.3-2.1-.1-4.4.2-6.9.8l-21.6,5.8-2.7-10,45.4-12.2Z"/>
  <path class="st0" d="M961.2,400.6l2.1,10.2-46.1,9.4-2.1-10.2,46.1-9.4ZM978.8,397l2.1,10.2-9.6,2-2.1-10.2,9.6-2Z"/>
  <path class="st0" d="M966.2,424.4l1.1,9.8-6.9.8-.2.2c2.8,1.3,5,3.1,6.8,5.4,1.8,2.4,2.8,5.1,3.2,8.1.6,5.1-.2,9.3-2.5,12.6-2.3,3.3-6.1,5.2-11.4,5.8l-32.1,3.8-1.2-10.3,29.4-3.5c3.7-.6,6.2-1.7,7.7-3.3,1.5-1.6,2-4,1.7-7.1-.2-1.7-.7-3.3-1.5-4.6-.8-1.3-1.8-2.4-3-3.2-1.2-.8-2.6-1.4-4.2-1.8-1.6-.4-3.2-.4-4.9-.2l-27.6,3.2-1.2-10.3,46.7-5.5Z"/>
  <path class="st0" d="M989.7,480.3v10.4s-36.9,0-36.9,0l19,18.7v12.7s-17.3-18-17.3-18l-29.7,19.8v-12.6s22.8-14.4,22.8-14.4l-6-6.2h-16.8s0-10.3,0-10.3h65Z"/>
  <path class="st0" d="M944.1,537.6c-1.8-.2-3.6-.1-5.3.2-1.7.3-3.3.9-4.7,1.8-1.4.9-2.5,2.1-3.5,3.5-.9,1.5-1.5,3.3-1.8,5.5-.3,3,0,5.5,1.1,7.5,1.1,2,2.9,3.6,5.4,4.8l-1.1,9.8c-2.5-.8-4.6-2-6.5-3.6-1.8-1.6-3.3-3.3-4.5-5.4-1.1-2-1.9-4.2-2.4-6.6-.4-2.4-.5-4.9-.2-7.4.4-3.7,1.4-6.9,2.9-9.6,1.5-2.7,3.5-4.9,5.9-6.6,2.4-1.7,5.1-2.9,8.3-3.6,3.1-.7,6.5-.8,10.1-.4,3.3.4,6.4,1.3,9.3,2.6,2.9,1.4,5.3,3.2,7.4,5.4,2,2.2,3.6,4.8,4.6,7.7,1,2.9,1.3,6.1.9,9.6-.4,3.7-1.6,6.9-3.4,9.6-1.9,2.8-4.2,4.9-6.9,6.6-2.7,1.6-5.8,2.7-9.2,3.2-3.4.5-6.8.3-10.2-.5l3.9-34.4ZM948.2,562.4c1.6,0,3.2-.1,4.8-.5,1.6-.4,3-1,4.2-1.9,1.2-.9,2.3-2,3.1-3.3.9-1.3,1.4-2.9,1.6-4.6.2-1.8,0-3.5-.4-5-.5-1.5-1.2-2.9-2.2-4.1-1-1.2-2.2-2.2-3.6-3-1.4-.8-3-1.3-4.8-1.6l-2.7,24.1Z"/>
  <path class="st0" d="M964.2,586.3l-2.2,9.6-6.7-1.6h-.2c2.2,2.3,3.7,4.7,4.6,7.6.9,2.8,1,5.7.3,8.7-1.2,5-3.4,8.7-6.7,11-3.3,2.3-7.5,2.8-12.7,1.6l-31.5-7.3,2.3-10.1,28.8,6.7c3.6.7,6.4.6,8.4-.5s3.3-3.1,4-6.1c.4-1.7.4-3.3.1-4.8-.3-1.5-.9-2.9-1.8-4.1-.9-1.2-2-2.2-3.3-3.1-1.4-.9-2.9-1.5-4.5-1.9l-27-6.3,2.3-10.1,45.8,10.6Z"/>
  <path class="st0" d="M875.4,700.8l3-6.6,7.7,1.6c-1.9-4.2-2.9-7.9-2.8-11.2,0-3.3.8-6.8,2.5-10.4,2-4.4,4.6-8,7.8-10.8,3.2-2.8,6.8-4.8,10.7-5.9,3.9-1.2,8-1.6,12.4-1.2,4.3.4,8.7,1.5,12.9,3.4,4.2,1.9,7.9,4.3,11.1,7.3,3.2,3,5.6,6.3,7.4,10,1.7,3.7,2.6,7.7,2.7,11.9,0,4.3-.9,8.6-2.9,13-1.4,3.2-3.2,6.1-5.4,8.6-2.2,2.5-4.6,4.5-7.3,6.1-2.7,1.5-5.7,2.4-8.9,2.8-3.2.4-6.6,0-10.1-1.1l4.5-10.1c2.1.6,4,.8,5.9.5,1.9-.3,3.6-.9,5.2-1.8,1.6-.9,3.1-2.2,4.3-3.6,1.3-1.5,2.3-3.2,3.2-5.1,1.4-3.2,2-6.2,1.8-9-.2-2.9-1.1-5.5-2.6-7.9-1.5-2.4-3.4-4.5-5.8-6.5-2.4-1.9-5-3.5-7.8-4.8-2.8-1.3-5.7-2.2-8.8-2.7-3-.5-5.9-.5-8.7,0-2.8.5-5.3,1.6-7.6,3.3-2.3,1.7-4.2,4.2-5.6,7.3-1.2,2.6-2,5.1-2.1,7.5-.2,2.4.1,4.6.9,6.6.8,2,2,3.9,3.8,5.5,1.7,1.6,3.8,3,6.3,4.2l7.1-15.8,7.9,3.5-11.3,25.2-31.2-14Z"/>
  <path class="st0" d="M926.1,741.4l-5.2,9-56.2-32.6,5.2-9,56.2,32.6Z"/>
  <path class="st0" d="M836.2,760.4l5.8-8.4,5.4,3.8h.1c-1.2-2.5-1.7-5.2-1.4-8.1.3-2.9,1.2-5.4,2.7-7.5,3.5-5.1,7.4-7.9,11.5-8.4,4.1-.5,8.7,1,13.7,4.6l24.5,17.1-5.9,8.5-23.6-16.5c-3.4-2.4-6.2-3.4-8.5-3.1-2.3.3-4.3,1.6-5.9,4-1.3,1.8-2,3.5-2.3,5-.3,1.6-.2,3.1.2,4.4.4,1.4,1.1,2.7,2.2,3.9,1.1,1.2,2.3,2.4,3.8,3.4l22.4,15.6-5.9,8.5-38.5-27ZM893.6,791.1l-8.1-5.6,5.9-8.5,8.1,5.6-5.9,8.5ZM900.5,764.1l8.1,5.6-5.9,8.5-8.1-5.6,5.9-8.5Z"/>
  <path class="st0" d="M879,810.8l-6.9,7.7-18-16.1h-.1c.7,2.5.8,5.1.2,7.9-.6,2.8-2,5.4-4,7.7-3.4,3.8-7.1,6-11.1,6.4-4,.4-7.9-1.1-11.9-4.7l-24.1-21.5,6.9-7.7,22,19.7c2.8,2.4,5.4,3.6,7.6,3.6,2.2,0,4.4-1.1,6.4-3.4,1.2-1.3,2-2.7,2.4-4.2.5-1.5.6-2.9.4-4.4-.2-1.5-.7-2.9-1.4-4.3-.8-1.4-1.8-2.7-3-3.8l-20.7-18.5,6.9-7.7,48.4,43.3Z"/>
  <path class="st0" d="M830.8,838.1l-8.4,7.1-29.7-20.9h-.1c0,.1,15.9,32.6,15.9,32.6l-8,6.8-29.1-21.4h-.1c0,.1,15.4,33.1,15.4,33.1l-8.1,6.8-19.1-45.5,8.1-6.9,29.2,21.1h.1c0-.1-15.9-32.4-15.9-32.4l8.3-7,41.5,26.5Z"/>
  <path class="st0" d="M748.2,870.2c-1-1.5-2.1-2.9-3.5-4-1.3-1.2-2.8-2-4.3-2.5-1.6-.5-3.2-.7-4.9-.5-1.7.2-3.5.9-5.4,2.1-2.6,1.6-4.3,3.5-5.1,5.6-.9,2.1-1,4.5-.4,7.2l-8.3,5.3c-.9-2.4-1.3-4.9-1.3-7.3,0-2.4.5-4.7,1.4-6.8.9-2.2,2.1-4.2,3.7-6,1.6-1.8,3.5-3.4,5.6-4.8,3.1-2,6.2-3.2,9.3-3.7,3.1-.5,6-.4,8.8.4,2.8.8,5.5,2.2,8,4.2,2.5,2,4.7,4.6,6.6,7.7,1.8,2.8,3,5.8,3.7,8.9.7,3.1.8,6.1.4,9.1-.4,3-1.5,5.8-3.1,8.4-1.6,2.6-4,4.9-6.9,6.8-3.1,2-6.3,3.1-9.7,3.4-3.3.3-6.5-.2-9.5-1.3-3-1.1-5.8-2.8-8.3-5.2-2.5-2.3-4.5-5.1-6-8.3l29.2-18.5ZM731.4,888.9c1,1.3,2.1,2.5,3.4,3.4,1.3,1,2.7,1.7,4.1,2.1,1.4.4,3,.5,4.5.4,1.6-.2,3.1-.7,4.6-1.7,1.5-1,2.8-2.1,3.7-3.5.9-1.3,1.5-2.8,1.8-4.3.3-1.5.3-3.1,0-4.7-.3-1.6-.9-3.2-1.7-4.7l-20.5,12.9Z"/>
  <path class="st0" d="M723.3,915.6l-9.2,4.8-21.8-41.7,9.2-4.8,21.8,41.7ZM731.6,931.4l-9.2,4.8-4.6-8.7,9.2-4.8,4.6,8.7Z"/>
  <path class="st0" d="M701.7,926.9l-9.1,3.8-2.7-6.4h-.2c-.4,2.9-1.5,5.6-3.3,8-1.8,2.4-4.1,4.1-6.9,5.3-4.8,2-9,2.3-12.8,1-3.8-1.3-6.7-4.4-8.8-9.3l-12.5-29.8,9.6-4,11.5,27.3c1.5,3.4,3.3,5.5,5.3,6.5,2,1,4.4.9,7.3-.3,1.6-.7,3-1.6,4-2.7,1-1.1,1.8-2.4,2.2-3.8.5-1.4.6-2.9.6-4.5,0-1.6-.5-3.2-1.1-4.8l-10.8-25.6,9.6-4,18.2,43.4Z"/>
  <path class="st0" d="M623.9,955.7l-9.6,2.2-1.5-6.7h-.2c-1,2.8-2.5,5.2-4.7,7.2-2.2,2-4.7,3.4-7.8,4-5,1.1-9.3.7-12.8-1.2-3.5-1.9-5.8-5.5-7-10.7l-7.1-31.5,10.1-2.3,6.5,28.8c.9,3.6,2.3,6,4.1,7.3,1.8,1.3,4.2,1.6,7.2.9,1.7-.4,3.2-1,4.4-2,1.2-.9,2.2-2,2.9-3.4.7-1.3,1.1-2.8,1.3-4.4.2-1.6.1-3.2-.3-4.9l-6.1-27.1,10.1-2.3,10.4,45.9Z"/>
  <path class="st0" d="M523.1,924.6l10.1-1,.7,6.5h.2c1-2.5,2.7-4.6,5.1-6.3,2.4-1.7,4.8-2.7,7.4-2.9,6.2-.6,10.8.4,13.8,3.2,3.1,2.8,4.9,7.2,5.5,13.4l3.1,29.7-10.3,1.1-3-28.7c-.4-4.1-1.5-6.9-3.3-8.4-1.7-1.5-4-2.1-6.9-1.9-2.2.2-3.9.7-5.3,1.6-1.4.8-2.5,1.8-3.3,3-.8,1.2-1.3,2.6-1.5,4.2-.2,1.6-.3,3.3,0,5.1l2.8,27.2-10.3,1.1-4.8-46.8Z"/>
  <path class="st0" d="M514,971.7h-9.7c0,0,0-9,0-9h-.2c-.3,1.3-.9,2.5-1.7,3.7-.9,1.2-1.9,2.3-3.2,3.3-1.2,1-2.6,1.8-4.1,2.4-1.5.6-3.1.9-4.6.9-1.2,0-2,0-2.5,0-.5,0-.9-.1-1.4-.2v-10c.7.1,1.4.2,2.2.3.8,0,1.5.1,2.2.1,1.8,0,3.4-.4,5-1.1,1.5-.7,2.9-1.7,4-3.1,1.1-1.4,2-3.1,2.7-5.1.7-2,1-4.3,1-6.9l-.2-22.4h10.4c0,0,.3,47,.3,47Z"/>
  <path class="st0" d="M455.3,970.9l-10.9-1.8-3.2-36.2h-.2s-14.6,33.1-14.6,33.1l-10.3-1.8-2.5-36h-.2s-15.3,33-15.3,33l-10.4-1.8,22.4-43.9,10.5,1.8,2.8,35.9h.2s14.4-33,14.4-33l10.8,1.8,6.5,48.8Z"/>
  <path class="st0" d="M377.5,928.5c.5-1.7.8-3.5.8-5.3,0-1.8-.3-3.4-.9-4.9-.6-1.5-1.5-2.9-2.8-4.1-1.3-1.2-3-2.1-5-2.8-2.9-.9-5.4-1-7.6-.3-2.2.7-4.1,2.1-5.7,4.4l-9.4-2.9c1.3-2.3,2.9-4.2,4.7-5.7,1.9-1.5,3.9-2.6,6.1-3.4,2.2-.7,4.5-1.1,7-1.1,2.4,0,4.9.4,7.3,1.2,3.5,1.1,6.5,2.7,8.8,4.7,2.4,2,4.2,4.4,5.4,7,1.2,2.7,1.9,5.6,1.9,8.8,0,3.2-.5,6.5-1.6,10-1,3.2-2.5,6-4.4,8.6-1.9,2.5-4.1,4.6-6.7,6.2-2.6,1.6-5.4,2.6-8.4,3-3.1.4-6.3.1-9.6-.9-3.5-1.1-6.5-2.8-8.8-5.2-2.3-2.4-4.1-5-5.2-8.1-1.1-3-1.6-6.2-1.4-9.6.2-3.4,1-6.7,2.4-10l33,10.4ZM352.4,927.8c-.4,1.6-.5,3.2-.4,4.8,0,1.6.5,3.1,1.1,4.5.6,1.4,1.5,2.6,2.7,3.7,1.2,1.1,2.6,1.9,4.2,2.4,1.7.5,3.4.7,5,.6,1.6-.2,3.1-.6,4.4-1.4,1.3-.8,2.6-1.8,3.6-3,1.1-1.3,1.9-2.7,2.5-4.4l-23.1-7.2Z"/>
  <path class="st0" d="M320,955.4l-9.6-3.9,3.7-9.1,9.6,3.9-3.7,9.1ZM326.8,938.8l-9.6-3.9,17.7-43.6,9.6,3.9-17.7,43.6Z"/>
  <path class="st0" d="M297.6,945.9l-9.4-4.4,27.4-58.9,9.4,4.4-27.4,58.9Z"/>
  <path class="st0" d="M266.9,879.9c1-1.5,1.7-3.1,2.2-4.8s.7-3.4.5-5c-.2-1.6-.7-3.2-1.6-4.7-.9-1.5-2.3-2.8-4.1-4-2.5-1.7-4.9-2.4-7.2-2.4-2.3,0-4.5,1-6.7,2.7l-8.2-5.4c1.8-1.8,3.9-3.2,6.1-4.2,2.2-1,4.5-1.5,6.8-1.6,2.3-.1,4.7.2,7,.9,2.3.7,4.6,1.7,6.7,3.1,3.1,2,5.5,4.3,7.2,6.9,1.7,2.6,2.8,5.3,3.3,8.2.5,2.9.3,5.9-.5,9-.8,3.1-2.2,6.2-4.2,9.2-1.8,2.8-4,5.2-6.5,7.1-2.5,1.9-5.2,3.3-8.1,4.2-2.9.8-5.9,1-8.9.6-3.1-.4-6.1-1.6-9-3.5-3.1-2-5.5-4.5-7.1-7.4-1.6-2.9-2.6-5.9-2.8-9.1-.2-3.2.2-6.4,1.2-9.7,1.1-3.3,2.7-6.2,5-9l29,18.9ZM242.8,872.5c-.8,1.4-1.4,3-1.7,4.5-.3,1.6-.4,3.1-.2,4.6.2,1.5.8,2.9,1.6,4.3.8,1.4,2,2.5,3.4,3.5,1.5,1,3.1,1.6,4.7,1.9,1.6.3,3.1.2,4.6-.1,1.5-.4,2.9-1,4.3-1.9,1.4-.9,2.5-2.1,3.6-3.5l-20.3-13.2Z"/>
  <path class="st0" d="M228.7,846.4c1.7-2.5,2.2-4.9,1.4-7.1-.8-2.2-2.2-4.2-4.4-6-.7-.6-1.7-1.3-2.7-1.9-1.1-.7-2.1-1.2-3.3-1.6-1.1-.4-2.2-.5-3.3-.3-1.1.2-2,.8-2.8,1.9-.8,1.1-1.1,2.2-1,3.5.2,1.2.6,2.5,1.4,3.8.8,1.3,1.7,2.7,2.9,4.1s2.4,2.9,3.5,4.4c1.2,1.6,2.3,3.1,3.3,4.8,1,1.6,1.7,3.3,2.2,5,.4,1.7.5,3.4.1,5.2-.4,1.8-1.3,3.6-2.8,5.4-1.6,2-3.5,3.2-5.5,3.8-2.1.5-4.2.6-6.3.2-2.1-.4-4.3-1.2-6.3-2.3-2.1-1.2-3.9-2.4-5.6-3.8-1.9-1.5-3.5-3.2-4.9-5-1.4-1.8-2.4-3.7-3-5.7-.6-2-.8-4.1-.6-6.3.3-2.2,1.1-4.4,2.5-6.6l8.4,6.9c-1.2,2.2-1.4,4.2-.5,6,.8,1.8,2.2,3.4,3.9,4.9.6.5,1.3,1,2.1,1.5.9.5,1.7,1,2.6,1.3.9.3,1.8.4,2.6.3.9-.1,1.6-.6,2.3-1.4.8-1,1.1-2.1.9-3.2-.2-1.2-.7-2.4-1.4-3.7-.8-1.3-1.7-2.7-2.9-4.1-1.2-1.4-2.4-2.9-3.6-4.5-1.2-1.5-2.3-3.1-3.3-4.7-1-1.6-1.8-3.3-2.2-5-.4-1.7-.5-3.4-.2-5.2.3-1.8,1.2-3.6,2.7-5.3,1.8-2.2,3.8-3.6,6-4.3,2.2-.7,4.5-.9,6.8-.5,2.3.4,4.6,1.1,6.9,2.3,2.3,1.2,4.3,2.5,6.2,4.1,2.3,1.9,4.2,3.9,5.7,6s2.6,4.3,3.1,6.5c.6,2.2.6,4.5.1,6.7-.5,2.2-1.6,4.5-3.3,6.7l-8-6.6Z"/>
  <path class="st0" d="M158.5,770.3c1-.8,1.5-1.6,1.7-2.2.2-.6,0-1.3-.7-2-.2-.2-.4-.5-.7-.8-.3-.3-.6-.6-1.1-1l5.4-4.7c.3.2.7.5,1.2.8.5.3,1,.7,1.5,1.1.5.4,1,.8,1.4,1.2.4.4.8.8,1.1,1.1,1.4,1.6,2.2,3.2,2.5,4.8.3,1.6-.3,3.3-1.6,5,2.9.2,5.6,1.2,8.3,2.9,2.7,1.7,4.9,3.6,6.7,5.7,1.4,1.6,2.5,3.3,3.3,5.2.8,1.8,1.3,3.7,1.4,5.6.1,1.9-.2,3.7-.9,5.5-.7,1.8-2,3.4-3.7,5-2.2,1.9-4.3,3.1-6.4,3.4-2.1.4-4.1.3-6-.4-1.9-.6-3.7-1.6-5.5-2.9-1.8-1.3-3.4-2.7-5-4.2-1.5-1.2-2.9-2.4-4.1-3.6-1.2-1.2-2.4-2.2-3.5-2.9-1.1-.7-2.2-1.2-3.3-1.2-1.1,0-2.2.4-3.3,1.4-1,.9-1.6,1.8-1.9,2.9-.2,1-.2,2.1,0,3.1.3,1,.7,2,1.4,3,.6,1,1.3,1.8,2,2.6,1.9,2.2,3.9,3.6,6.1,4.2,2.1.6,4.3.2,6.3-1.3l6.8,7.8c-2.4,1.8-4.8,2.9-7.1,3.3-2.3.3-4.6.2-6.8-.5-2.2-.7-4.3-1.8-6.3-3.4-2-1.6-3.8-3.3-5.6-5.3-1.5-1.7-2.8-3.6-3.9-5.6-1.1-2-1.8-4.1-2.2-6.1-.3-2.1-.2-4.1.4-6,.6-2,1.8-3.8,3.7-5.4l18.3-15.8ZM155.3,786.8c1.8.5,3.6,1.6,5.2,3.2,1.7,1.6,3.4,3.1,5.2,4.6.9.7,1.7,1.3,2.7,1.9.9.6,1.9,1,2.8,1.2s1.9.2,2.9,0c1-.3,2-.8,3-1.7.9-.8,1.4-1.6,1.5-2.7.2-1,.1-2-.2-3-.3-1-.7-2-1.3-3-.6-1-1.2-1.8-1.8-2.5-.8-.9-1.7-1.7-2.8-2.5-1.1-.8-2.3-1.4-3.6-1.8-1.3-.4-2.7-.6-4-.4-1.4.1-2.7.7-3.9,1.8l-5.8,5.1Z"/>
  <path class="st0" d="M108,793.5l-6.1-8.4,52.4-38.4,6.1,8.4-52.4,38.4Z"/>
  <path class="st0" d="M93.9,773.6l-5.7-8.7,54.3-35.7,5.7,8.7-54.3,35.7Z"/>
  <path class="st0" d="M114.6,723.9c1.6-.9,3-1.9,4.3-3.2,1.2-1.3,2.2-2.7,2.8-4.2.6-1.5.9-3.1.8-4.9,0-1.7-.7-3.6-1.7-5.5-1.5-2.7-3.2-4.5-5.2-5.5-2-1-4.4-1.3-7.1-.8l-4.7-8.6c2.5-.7,4.9-1,7.3-.8,2.4.2,4.6.8,6.7,1.8,2.1,1,4,2.4,5.7,4.1,1.7,1.7,3.2,3.7,4.4,5.9,1.8,3.2,2.8,6.4,3.1,9.5.3,3.1,0,6-1,8.8-1,2.8-2.5,5.3-4.7,7.7-2.2,2.3-4.9,4.4-8.1,6.1-2.9,1.6-6,2.7-9.1,3.2-3.1.5-6.2.4-9.1-.2-2.9-.6-5.7-1.9-8.2-3.7-2.5-1.8-4.6-4.3-6.3-7.3-1.8-3.2-2.7-6.5-2.7-9.9,0-3.3.6-6.4,1.9-9.4,1.3-2.9,3.2-5.6,5.7-7.9,2.5-2.4,5.4-4.2,8.7-5.5l16.6,30.3ZM97.1,705.9c-1.4.9-2.6,2-3.7,3.2-1.1,1.2-1.8,2.6-2.3,4-.5,1.4-.7,2.9-.7,4.5,0,1.6.5,3.2,1.4,4.7.9,1.6,1.9,2.9,3.2,3.9,1.3,1,2.7,1.7,4.1,2.1,1.5.4,3.1.5,4.7.3,1.6-.2,3.2-.6,4.8-1.4l-11.6-21.2Z"/>
  <path class="st0" d="M58.6,669.9l-2.9-9.4,6.3-1.9v-.3c-1.4-.4-2.7-.9-3.9-1.5-1.2-.6-2.3-1.3-3.2-2.2-1-.9-1.8-2-2.7-3.2-.8-1.3-1.5-2.8-2-4.6-.8-2.7-1-5.5-.5-8.2.5-2.7,1.9-5,4.1-6.7-2.8-1-5.3-2.4-7.3-4.2-2-1.8-3.5-4.4-4.5-7.7-1.5-4.8-1.4-8.8,0-12.2,1.5-3.3,5-5.9,10.5-7.5l31.1-9.5,3,9.9-26.3,8c-1.8.5-3.4,1.1-4.9,1.7-1.4.6-2.6,1.3-3.5,2.2-.9.9-1.5,2-1.7,3.2-.2,1.3,0,2.9.5,4.8,1,3.4,2.8,5.5,5.4,6.4,2.5.9,5.7.7,9.6-.4l26.4-8,3,9.9-28.9,8.8c-3.1,1-5.3,2.2-6.6,3.9-1.2,1.6-1.4,3.9-.5,7,.4,1.3,1,2.4,1.9,3.5.9,1,2,1.8,3.2,2.4,1.3.6,2.7,1,4.3,1.1,1.6.1,3.4-.1,5.2-.7l26.7-8.1,3,9.9-45,13.7Z"/>
  <path class="st0" d="M66.6,544.7c1.3-.2,2.1-.5,2.6-.9.5-.4.7-1.1.5-2.1,0-.3,0-.7-.2-1.1,0-.4-.2-.9-.4-1.4l7.1-1.1c.2.3.4.8.6,1.3.2.5.5,1.1.7,1.7.2.6.4,1.2.5,1.8.1.6.3,1.1.3,1.5.3,2.1.2,3.9-.5,5.4-.6,1.5-2,2.6-4,3.4,2.3,1.7,4.1,4,5.4,6.9s2.2,5.6,2.6,8.4c.3,2.1.3,4.2,0,6.2-.3,2-.9,3.8-1.8,5.5-.9,1.6-2.1,3-3.7,4.1-1.6,1.1-3.5,1.9-5.8,2.2-2.9.4-5.3.3-7.3-.5-2-.8-3.6-2-4.8-3.5-1.3-1.6-2.3-3.4-3.1-5.4-.8-2.1-1.4-4.2-2-6.3-.6-1.8-1.2-3.5-1.6-5.2-.4-1.7-.9-3.1-1.4-4.3-.6-1.2-1.3-2.2-2.1-2.8-.9-.6-2-.8-3.5-.6-1.3.2-2.4.7-3.1,1.4-.7.8-1.3,1.6-1.6,2.6-.3,1-.5,2.1-.4,3.2,0,1.2.1,2.3.3,3.3.4,2.9,1.4,5.2,2.9,6.8,1.5,1.7,3.5,2.5,6.1,2.3l1.5,10.3c-3,.3-5.6,0-7.8-1s-4-2.3-5.5-4.1c-1.5-1.8-2.7-3.8-3.5-6.2-.8-2.4-1.5-4.9-1.8-7.5-.3-2.3-.4-4.6-.3-6.9.1-2.3.6-4.4,1.4-6.3.8-1.9,2-3.6,3.5-4.9,1.5-1.3,3.6-2.2,6-2.6l23.9-3.6ZM55.2,556.9c1.3,1.4,2.2,3.2,2.7,5.5.6,2.2,1.2,4.5,2,6.7.3,1.1.8,2.1,1.2,3,.5,1,1.1,1.8,1.8,2.5.7.7,1.5,1.2,2.5,1.5,1,.3,2.2.4,3.5.2,1.1-.2,2.1-.6,2.7-1.4.7-.8,1.2-1.7,1.5-2.7.3-1,.5-2.1.5-3.2,0-1.1,0-2.2-.2-3.1-.2-1.1-.5-2.3-1-3.6-.5-1.3-1.2-2.4-2.1-3.5-.9-1.1-2-1.9-3.2-2.5-1.2-.6-2.6-.8-4.3-.6l-7.7,1.1Z"/>
  <path class="st0" d="M43.8,503.1c-2.9.5-5.1,1.8-6.5,3.7-1.4,2-2.1,4.4-2,7.3,0,1.3.3,2.8.8,4.3.5,1.5,1.4,2.9,2.7,4.1,1.3,1.2,3,2.2,5.3,3,2.2.8,5.2,1.1,8.7,1,1.9,0,3.9-.4,5.8-.9,1.9-.5,3.6-1.3,5.1-2.4,1.5-1,2.7-2.4,3.6-4,.9-1.6,1.3-3.5,1.2-5.8,0-3-1.1-5.5-3.1-7.4-1.9-1.9-4.6-3.1-8-3.4l-.3-10.4c6.2.8,10.9,2.9,14.3,6.5,3.4,3.6,5.1,8.4,5.3,14.4.1,3.7-.4,7-1.5,9.8s-2.8,5.3-4.9,7.3c-2.1,2-4.6,3.6-7.5,4.7-2.9,1.1-6.1,1.7-9.6,1.8-3.5.1-6.8-.3-10-1.1-3.1-.9-5.9-2.2-8.2-4.1-2.3-1.9-4.2-4.2-5.6-7.1-1.4-2.8-2.2-6.2-2.3-10.1,0-2.7.2-5.3.8-7.8.6-2.5,1.6-4.7,2.9-6.7,1.3-2,3-3.6,5.1-4.9,2.1-1.3,4.6-2.1,7.5-2.4l.3,10.4Z"/>
  <path class="st0" d="M10.3,479.5l.9-10.3,24,2v-.2c-2-1.4-3.6-3.5-4.8-6.1-1.2-2.6-1.7-5.5-1.4-8.6.4-5.1,2.1-9.1,5-11.8,2.9-2.7,7-3.9,12.3-3.4l32.2,2.7-.9,10.3-29.5-2.5c-3.7-.2-6.4.4-8.2,1.7-1.8,1.3-2.8,3.5-3.1,6.6-.1,1.8,0,3.4.5,4.8.5,1.4,1.3,2.7,2.3,3.8,1,1.1,2.3,1.9,3.8,2.6,1.5.7,3,1.1,4.7,1.2l27.7,2.4-.9,10.3-64.7-5.5Z"/>
  <path class="st0" d="M61.1,422.7c1.8.4,3.6.5,5.3.3,1.8-.2,3.4-.6,4.8-1.4,1.5-.8,2.7-1.8,3.8-3.2,1.1-1.4,1.8-3.2,2.2-5.3.6-3,.5-5.5-.5-7.6-.9-2.1-2.5-3.8-4.9-5.2l2-9.6c2.4,1,4.4,2.4,6.1,4.1,1.7,1.7,3,3.6,4,5.7,1,2.1,1.5,4.4,1.8,6.8.2,2.4,0,4.9-.4,7.4-.7,3.6-2,6.7-3.8,9.3-1.8,2.6-3.9,4.6-6.4,6.1-2.5,1.5-5.4,2.4-8.6,2.8-3.2.4-6.5.2-10.1-.5-3.3-.7-6.3-1.8-9-3.5-2.7-1.6-5-3.7-6.8-6-1.8-2.4-3.1-5.1-3.9-8.1-.7-3-.8-6.2,0-9.7.7-3.6,2.2-6.7,4.3-9.3,2.1-2.6,4.6-4.6,7.5-5.9,2.9-1.4,6-2.2,9.5-2.4,3.4-.2,6.8.3,10.2,1.4l-6.9,33.9ZM59.2,397.6c-1.6-.2-3.2-.2-4.8,0-1.6.3-3.1.8-4.4,1.5-1.3.8-2.4,1.8-3.4,3-1,1.3-1.6,2.7-2,4.5-.4,1.8-.4,3.5,0,5.1.3,1.6.9,3,1.8,4.3.9,1.3,2,2.4,3.4,3.3,1.4.9,2.9,1.6,4.6,2l4.8-23.7Z"/>
  <path class="st0" d="M45.4,372.4l3.1-9.3,6.6,2.2h.2c-2-2.4-3.3-5-3.9-7.9-.6-2.9-.4-5.8.5-8.7,1.6-4.9,4.1-8.3,7.6-10.3,3.5-2,7.7-2.2,12.8-.5l30.7,10.1-3.2,9.9-28.1-9.2c-3.6-1-6.3-1.1-8.4-.3-2,.9-3.5,2.8-4.5,5.7-.5,1.7-.7,3.3-.6,4.8.2,1.5.6,2.9,1.4,4.2.8,1.3,1.8,2.4,3.1,3.4,1.3,1,2.7,1.8,4.3,2.3l26.4,8.6-3.2,9.9-44.7-14.6Z"/>
  <path class="st0" d="M95.9,333.5l5-11.6,11.3,4.8-5,11.6-11.3-4.8Z"/>
</svg>