<?xml version="1.0" encoding="UTF-8"?><svg id="Layer_3" xmlns="http://www.w3.org/2000/svg" viewBox="0 0 184.25 163.58"><defs><style>.cls-1{fill:#cc2027;}.cls-2{fill:#fcb515;}.cls-2,.cls-3,.cls-4,.cls-5{stroke:#262625;}.cls-2,.cls-3,.cls-4,.cls-5,.cls-6{stroke-miterlimit:10;}.cls-3{fill:#fcb516;}.cls-4,.cls-6{fill:#ede3d9;}.cls-5{fill:#fab417;}.cls-6{stroke:#262626;stroke-width:.8px;}</style></defs><rect class="cls-1" width="184.25" height="163.58"/><g><g><g><path class="cls-4" d="M26.2,75h-7.91V19.6h7.91v4.35l7.91,7.91v-12.27h7.91v55.39h-7.91v-31.65l-7.91-7.91v39.57Z"/><path class="cls-3" d="M73.68,27.52h-7.91v39.57h7.91v7.91h-23.74v-7.91h7.91V27.52h-7.91v-7.91h23.74v7.91Z"/><path class="cls-4" d="M81.59,27.52v-7.91h23.74v7.91h-7.91v47.48h-7.91V27.52h-7.91Z"/><path class="cls-3" d="M116.73,23.09c2.32-2.32,5.12-3.48,8.39-3.48s6.07,1.16,8.39,3.48c2.32,2.32,3.48,5.12,3.48,8.39s-1.16,6.07-3.48,8.39c-2.32,2.32-5.12,3.48-8.39,3.48-1.4,0-2.72-.21-3.96-.63v16.46c4.38,0,8.11,1.54,11.2,4.63s4.63,6.82,4.63,11.2h-7.91c0-2.19-.77-4.06-2.31-5.6-1.54-1.54-3.41-2.31-5.6-2.31v7.91h-7.91V31.48c0-3.27,1.16-6.07,3.48-8.39Zm11.18,5.6c-.78-.78-1.71-1.17-2.79-1.17s-2.01,.39-2.79,1.17c-.78,.78-1.17,1.71-1.17,2.79s.39,2.01,1.17,2.79c.78,.78,1.71,1.17,2.79,1.17s2.01-.39,2.79-1.17,1.17-1.71,1.17-2.79-.39-2.01-1.17-2.79Z"/><path class="cls-3" d="M148.38,38.91c2.32-2.32,5.12-3.48,8.39-3.48s6.07,1.16,8.39,3.48c2.32,2.32,3.48,5.12,3.48,8.39s-1.16,6.07-3.48,8.39c-2.32,2.32-5.12,3.48-8.39,3.48s-6.07-1.16-8.39-3.48c-2.32-2.32-3.48-5.12-3.48-8.39s1.16-6.07,3.48-8.39Zm11.18,5.6c-.78-.78-1.71-1.17-2.79-1.17s-2.01,.39-2.79,1.17c-.78,.78-1.17,1.71-1.17,2.79s.39,2.01,1.17,2.79c.78,.78,1.71,1.17,2.79,1.17s2.01-.39,2.79-1.17,1.17-1.71,1.17-2.79-.39-2.01-1.17-2.79Z"/><path class="cls-3" d="M48.6,115.16h-7.91v-23.74h7.91c4.38,0,8.11,1.54,11.2,4.63,.24,.24,.46,.47,.67,.71,.21-.24,.44-.47,.67-.71,3.09-3.09,6.82-4.63,11.2-4.63h7.91v23.74h-7.91v-15.83c-2.19,0-4.06,.77-5.6,2.31-1.54,1.54-2.31,3.41-2.31,5.6h-7.91c0-2.19-.77-4.06-2.31-5.6-1.54-1.54-3.41-2.31-5.6-2.31v15.83Z"/><path class="cls-4" d="M91.65,110.73c2.32-2.32,5.12-3.48,8.39-3.48s6.07,1.16,8.39,3.48c2.32,2.32,3.48,5.12,3.48,8.39s-1.16,6.07-3.48,8.39c-2.32,2.32-5.12,3.48-8.39,3.48s-6.07-1.16-8.39-3.48-3.48-5.12-3.48-8.39,1.16-6.07,3.48-8.39Zm11.18,5.6c-.78-.78-1.71-1.17-2.79-1.17s-2.01,.39-2.79,1.17c-.78,.78-1.17,1.71-1.17,2.79s.39,2.01,1.17,2.79c.78,.78,1.71,1.17,2.79,1.17s2.01-.39,2.79-1.17c.78-.78,1.17-1.71,1.17-2.79s-.39-2.01-1.17-2.79Z"/><path class="cls-3" d="M123.3,94.9c2.32-2.32,5.12-3.48,8.39-3.48s6.07,1.16,8.39,3.48c2.32,2.32,3.48,5.12,3.48,8.39h-7.91c0-1.08-.39-2.01-1.17-2.79-.78-.78-1.71-1.17-2.79-1.17s-2.01,.39-2.79,1.17c-.78,.78-1.17,1.71-1.17,2.79s.39,2.01,1.17,2.79,1.71,1.17,2.79,1.17c3.27,0,6.07,1.16,8.39,3.48s3.48,5.12,3.48,8.39-1.16,6.07-3.48,8.39c-2.32,2.32-5.12,3.48-8.39,3.48s-6.07-1.16-8.39-3.48c-2.32-2.32-3.48-5.12-3.48-8.39h7.91c0,1.08,.39,2.01,1.17,2.79,.78,.78,1.71,1.17,2.79,1.17s2.01-.39,2.79-1.17c.78-.78,1.17-1.71,1.17-2.79s-.39-2.01-1.17-2.79-1.71-1.17-2.79-1.17c-3.27,0-6.07-1.16-8.39-3.48-2.32-2.32-3.48-5.12-3.48-8.39s1.16-6.07,3.48-8.39Z"/><path class="cls-4" d="M144.9,75v-7.91h23.74v7.91h-7.91v55.98h-7.91v-55.98h-7.91Z"/><rect class="cls-4" x="144.9" y="19.6" width="23.74" height="7.91"/><rect class="cls-4" x="40.69" y="123.07" width="39.57" height="7.91"/><rect class="cls-3" x="88.17" y="91.42" width="23.74" height="7.91"/></g><g><path class="cls-3" d="M23.52,72.32h-7.91V16.93h7.91v4.35l7.91,7.91v-12.27h7.91v55.39h-7.91v-31.65l-7.91-7.91v39.57Z"/><path class="cls-4" d="M71,24.84h-7.91v39.57h7.91v7.91h-23.74v-7.91h7.91V24.84h-7.91v-7.91h23.74v7.91Z"/><path class="cls-3" d="M78.92,24.84v-7.91h23.74v7.91h-7.91v47.48h-7.91V24.84h-7.91Z"/><path class="cls-4" d="M114.05,20.41c2.32-2.32,5.12-3.48,8.39-3.48s6.07,1.16,8.39,3.48,3.48,5.12,3.48,8.39-1.16,6.07-3.48,8.39c-2.32,2.32-5.12,3.48-8.39,3.48-1.4,0-2.72-.21-3.96-.63v16.46c4.38,0,8.11,1.54,11.2,4.63,3.09,3.09,4.63,6.82,4.63,11.2h-7.91c0-2.19-.77-4.06-2.31-5.6-1.54-1.54-3.41-2.31-5.6-2.31v7.91h-7.91V28.8c0-3.27,1.16-6.07,3.48-8.39Zm11.18,5.6c-.78-.78-1.71-1.17-2.79-1.17s-2.01,.39-2.79,1.17c-.78,.78-1.17,1.71-1.17,2.79s.39,2.01,1.17,2.79c.78,.78,1.71,1.17,2.79,1.17s2.01-.39,2.79-1.17c.78-.78,1.17-1.71,1.17-2.79s-.39-2.01-1.17-2.79Z"/><path class="cls-4" d="M145.71,36.24c2.32-2.32,5.12-3.48,8.39-3.48s6.07,1.16,8.39,3.48c2.32,2.32,3.48,5.12,3.48,8.39s-1.16,6.07-3.48,8.39c-2.32,2.32-5.12,3.48-8.39,3.48s-6.07-1.16-8.39-3.48c-2.32-2.32-3.48-5.12-3.48-8.39s1.16-6.07,3.48-8.39Zm11.18,5.6c-.78-.78-1.71-1.17-2.79-1.17s-2.01,.39-2.79,1.17-1.17,1.71-1.17,2.79,.39,2.01,1.17,2.79,1.71,1.17,2.79,1.17,2.01-.39,2.79-1.17,1.17-1.71,1.17-2.79-.39-2.01-1.17-2.79Z"/><path class="cls-4" d="M45.93,112.48h-7.91v-23.74h7.91c4.38,0,8.11,1.54,11.2,4.63,.24,.24,.46,.47,.67,.71,.21-.24,.44-.47,.67-.71,3.09-3.09,6.82-4.63,11.2-4.63h7.91v23.74h-7.91v-15.83c-2.19,0-4.06,.77-5.6,2.31s-2.31,3.41-2.31,5.6h-7.91c0-2.19-.77-4.06-2.31-5.6-1.54-1.54-3.41-2.31-5.6-2.31v15.83Z"/><path class="cls-3" d="M88.97,108.05c2.32-2.32,5.12-3.48,8.39-3.48s6.07,1.16,8.39,3.48c2.32,2.32,3.48,5.12,3.48,8.39s-1.16,6.07-3.48,8.39c-2.32,2.32-5.12,3.48-8.39,3.48s-6.07-1.16-8.39-3.48c-2.32-2.32-3.48-5.12-3.48-8.39s1.16-6.07,3.48-8.39Zm11.18,5.6c-.78-.78-1.71-1.17-2.79-1.17s-2.01,.39-2.79,1.17c-.78,.78-1.17,1.71-1.17,2.79s.39,2.01,1.17,2.79c.78,.78,1.71,1.17,2.79,1.17s2.01-.39,2.79-1.17c.78-.78,1.17-1.71,1.17-2.79s-.39-2.01-1.17-2.79Z"/><path class="cls-4" d="M120.63,92.22c2.32-2.32,5.12-3.48,8.39-3.48s6.07,1.16,8.39,3.48,3.48,5.12,3.48,8.39h-7.91c0-1.08-.39-2.01-1.17-2.79-.78-.78-1.71-1.17-2.79-1.17s-2.01,.39-2.79,1.17-1.17,1.71-1.17,2.79,.39,2.01,1.17,2.79,1.71,1.17,2.79,1.17c3.27,0,6.07,1.16,8.39,3.48,2.32,2.32,3.48,5.12,3.48,8.39s-1.16,6.07-3.48,8.39c-2.32,2.32-5.12,3.48-8.39,3.48s-6.07-1.16-8.39-3.48c-2.32-2.32-3.48-5.12-3.48-8.39h7.91c0,1.08,.39,2.01,1.17,2.79,.78,.78,1.71,1.17,2.79,1.17s2.01-.39,2.79-1.17,1.17-1.71,1.17-2.79-.39-2.01-1.17-2.79-1.71-1.17-2.79-1.17c-3.27,0-6.07-1.16-8.39-3.48-2.32-2.32-3.48-5.12-3.48-8.39s1.16-6.07,3.48-8.39Z"/><path class="cls-5" d="M142.23,72.32v-7.91h23.74v7.91h-7.91v55.98h-7.91v-55.98h-7.91Z"/><rect class="cls-3" x="142.23" y="16.93" width="23.74" height="7.91"/><rect class="cls-5" x="38.01" y="120.39" width="39.57" height="7.91"/><rect class="cls-2" x="40.69" y="138.74" width="127.95" height="7.91"/><rect class="cls-4" x="38.01" y="136.06" width="127.95" height="7.91"/><rect class="cls-4" x="85.49" y="88.74" width="23.74" height="7.91"/></g></g><g id="_8_vol"><path class="cls-6" d="M17.48,141.94c-.62-.62-.92-1.36-.92-2.22s.31-1.61,.92-2.22,1.36-.92,2.22-.92c.71,0,1.34,.21,1.89,.63,.12-.16,.25-.31,.39-.45,.82-.82,1.81-1.23,2.97-1.23s2.15,.41,2.97,1.23c.82,.82,1.23,1.81,1.23,2.97s-.41,2.15-1.23,2.97c-.82,.82-1.81,1.23-2.97,1.23s-2.15-.41-2.97-1.23c-.14-.14-.27-.29-.39-.45-.55,.42-1.17,.63-1.89,.63-.87,0-1.61-.31-2.22-.92Zm5.98-.74c.41,.41,.9,.61,1.48,.61s1.07-.2,1.48-.61,.61-.9,.61-1.48c0-.58-.2-1.07-.61-1.48s-.9-.61-1.48-.61-1.07,.2-1.48,.61-.61,.9-.61,1.48,.2,1.07,.61,1.48Zm-4.5-2.22c-.21,.21-.31,.45-.31,.74s.1,.53,.31,.74,.45,.31,.74,.31,.53-.1,.74-.31,.31-.45,.31-.74-.1-.53-.31-.74-.45-.31-.74-.31-.53,.1-.74,.31Z"/><path class="cls-6" d="M16.53,132.5c-.62-.62-.92-1.36-.92-2.22s.31-1.61,.92-2.22,1.36-.92,2.22-.92,1.61,.31,2.22,.92,.92,1.36,.92,2.22c0,.87-.31,1.61-.92,2.22-.62,.62-1.36,.92-2.22,.92s-1.61-.31-2.22-.92Zm1.48-2.96c-.21,.21-.31,.45-.31,.74s.1,.53,.31,.74,.45,.31,.74,.31,.53-.1,.74-.31,.31-.45,.31-.74-.1-.53-.31-.74-.45-.31-.74-.31-.53,.1-.74,.31Zm-2.41-4.5l14.68,4.19v-2.1s-14.68-4.19-14.68-4.19v2.1Zm9.31-.92c-.62-.62-.92-1.36-.92-2.22s.31-1.61,.92-2.22,1.36-.92,2.22-.92,1.61,.31,2.22,.92,.92,1.36,.92,2.22-.31,1.61-.92,2.22-1.36,.92-2.22,.92-1.61-.31-2.22-.92Zm1.48-2.96c-.21,.21-.31,.45-.31,.74s.1,.53,.31,.74,.45,.31,.74,.31,.53-.1,.74-.31,.31-.45,.31-.74-.1-.53-.31-.74-.45-.31-.74-.31-.53,.1-.74,.31Z"/><path class="cls-6" d="M17.71,106.16v6.29s-2.1,0-2.1,0v-6.29s2.1,0,2.1,0Zm2.1,0v2.1s3.15,1.05,3.15,1.05l-3.15,1.05v2.1s6.29-2.1,6.29-2.1v-2.1s-6.29-2.1-6.29-2.1Zm10.48,0v6.29s-2.1,0-2.1,0v-6.29s2.1,0,2.1,0Z"/><path class="cls-6" d="M17.71,97.78v6.29s-2.1,0-2.1,0v-6.29s2.1,0,2.1,0Zm3.02,5.37c-.62-.62-.92-1.36-.92-2.22s.31-1.61,.92-2.22c.62-.62,1.36-.92,2.22-.92s1.61,.31,2.22,.92c.62,.62,.92,1.36,.92,2.22s-.31,1.61-.92,2.22-1.36,.92-2.22,.92-1.61-.31-2.22-.92Zm9.56-5.37v6.29s-2.1,0-2.1,0v-6.29s2.1,0,2.1,0Zm-8.08,2.41c-.21,.21-.31,.45-.31,.74s.1,.53,.31,.74,.45,.31,.74,.31,.53-.1,.74-.31,.31-.45,.31-.74-.1-.53-.31-.74-.45-.31-.74-.31-.53,.1-.74,.31Z"/><path class="cls-6" d="M30.29,95.68H15.61s0-2.1,0-2.1h12.58v-2.1s2.1,0,2.1,0v4.19Z"/></g></g></svg>